<?xml version="1.0" encoding="UTF-8" standalone="no"?>
<!-- Uploaded to: SVG Repo, www.svgrepo.com, Generator: SVG Repo Mixer Tools -->

<svg
   aria-label="Arch Linux"
   role="img"
   viewBox="0 0 320 322"
   version="1.1"
   id="svg1"
   sodipodi:docname="archlinux.svg"
   width="320"
   height="322"
   inkscape:version="1.3.2 (091e20ef0f, 2023-11-25)"
   xmlns:inkscape="http://www.inkscape.org/namespaces/inkscape"
   xmlns:sodipodi="http://sodipodi.sourceforge.net/DTD/sodipodi-0.dtd"
   xmlns="http://www.w3.org/2000/svg"
   xmlns:svg="http://www.w3.org/2000/svg">
  <defs
     id="defs1" />
  <sodipodi:namedview
     id="namedview1"
     pagecolor="#ffffff"
     bordercolor="#000000"
     borderopacity="0.25"
     inkscape:showpageshadow="2"
     inkscape:pageopacity="0.0"
     inkscape:pagecheckerboard="true"
     inkscape:deskcolor="#d1d1d1"
     inkscape:zoom="1.8613281"
     inkscape:cx="159.83211"
     inkscape:cy="184.81427"
     inkscape:window-width="1080"
     inkscape:window-height="1892"
     inkscape:window-x="0"
     inkscape:window-y="0"
     inkscape:window-maximized="1"
     inkscape:current-layer="svg1" />
  <path
     d="m 160,1 c -14,35 -23,57 -39,91 10,11 22,23 41,36 -21,-8 -35,-17 -45,-26 -21,43 -53,103 -117,220 50,-30 90,-48 127,-55 -2,-7 -3,-14 -3,-22 v -1 c 1,-33 18,-58 38,-56 20,1 36,29 35,62 l -2,17 c 36,7 75,26 125,54 l -27,-50 c -13,-10 -27,-23 -55,-38 19,5 33,11 44,17 C 196,91 189,70 160,0 Z"
     fill="#1793d1"
     id="path1" />
</svg>
