<?xml version="1.0" encoding="UTF-8" standalone="no"?>
<!-- Created with Inkscape (http://www.inkscape.org/) -->

<svg
   width="280.07001mm"
   height="280.07001mm"
   viewBox="0 0 280.07001 280.07001"
   version="1.1"
   id="svg8"
   inkscape:version="1.2 (dc2aedaf03, 2022-05-15)"
   sodipodi:docname="Intel Pentium 2020 logo.svg"
   xml:space="preserve"
   xmlns:inkscape="http://www.inkscape.org/namespaces/inkscape"
   xmlns:sodipodi="http://sodipodi.sourceforge.net/DTD/sodipodi-0.dtd"
   xmlns:xlink="http://www.w3.org/1999/xlink"
   xmlns="http://www.w3.org/2000/svg"
   xmlns:svg="http://www.w3.org/2000/svg"
   xmlns:rdf="http://www.w3.org/1999/02/22-rdf-syntax-ns#"
   xmlns:cc="http://creativecommons.org/ns#"
   xmlns:dc="http://purl.org/dc/elements/1.1/"><defs
     id="defs2"><linearGradient
       inkscape:collect="always"
       id="linearGradient5002"><stop
         style="stop-color:#3ea1da;stop-opacity:1;"
         offset="0"
         id="stop4996" /><stop
         id="stop4998"
         offset="0.42966413"
         style="stop-color:#42b4e8;stop-opacity:1;" /><stop
         style="stop-color:#3ea1da;stop-opacity:1;"
         offset="1"
         id="stop5000" /></linearGradient><linearGradient
       inkscape:collect="always"
       id="linearGradient3129"><stop
         style="stop-color:#ffffff;stop-opacity:1;"
         offset="0"
         id="stop3125" /><stop
         style="stop-color:#c5e5f1;stop-opacity:1;"
         offset="1"
         id="stop3127" /></linearGradient><linearGradient
       inkscape:collect="always"
       id="linearGradient8279"><stop
         style="stop-color:#3ea1db;stop-opacity:1;"
         offset="0"
         id="stop8275" /><stop
         id="stop8314"
         offset="0.42966413"
         style="stop-color:#41b4e7;stop-opacity:1;" /><stop
         style="stop-color:#3ea1da;stop-opacity:1;"
         offset="1"
         id="stop8277" /></linearGradient><linearGradient
       inkscape:collect="always"
       id="linearGradient1280"><stop
         style="stop-color:#ff5700;stop-opacity:1"
         offset="0"
         id="stop1276" /><stop
         id="stop1293"
         offset="0.5"
         style="stop-color:#9500d4;stop-opacity:0.98431373" /><stop
         style="stop-color:#1500e8;stop-opacity:0.969697"
         offset="1"
         id="stop1278" /></linearGradient><linearGradient
       inkscape:collect="always"
       xlink:href="#linearGradient1280"
       id="linearGradient1290"
       x1="87.855469"
       y1="569.66211"
       x2="87.855469"
       y2="405.37692"
       gradientUnits="userSpaceOnUse"
       gradientTransform="matrix(0.26458333,0,0,0.26458333,-62.339641,-55.916643)" /><filter
       style="color-interpolation-filters:sRGB"
       inkscape:label="Drop Shadow"
       id="filter5169"><feFlood
         flood-opacity="0.498039"
         flood-color="rgb(0,0,0)"
         result="flood"
         id="feFlood5159" /><feComposite
         in="flood"
         in2="SourceGraphic"
         operator="in"
         result="composite1"
         id="feComposite5161" /><feGaussianBlur
         in="composite1"
         stdDeviation="0.5"
         result="blur"
         id="feGaussianBlur5163" /><feOffset
         dx="0"
         dy="1.6"
         result="offset"
         id="feOffset5165" /><feComposite
         in="SourceGraphic"
         in2="offset"
         operator="over"
         result="composite2"
         id="feComposite5167" /></filter><filter
       style="color-interpolation-filters:sRGB"
       inkscape:label="Blur"
       id="filter5291"><feGaussianBlur
         stdDeviation="2 2"
         result="blur"
         id="feGaussianBlur5289" /></filter><filter
       style="color-interpolation-filters:sRGB"
       inkscape:label="Drop Shadow"
       id="filter5169-6"><feFlood
         flood-opacity="0.498039"
         flood-color="rgb(0,0,0)"
         result="flood"
         id="feFlood5159-2" /><feComposite
         in="flood"
         in2="SourceGraphic"
         operator="in"
         result="composite1"
         id="feComposite5161-9" /><feGaussianBlur
         in="composite1"
         stdDeviation="0.5"
         result="blur"
         id="feGaussianBlur5163-4" /><feOffset
         dx="0"
         dy="1.6"
         result="offset"
         id="feOffset5165-3" /><feComposite
         in="SourceGraphic"
         in2="offset"
         operator="over"
         result="composite2"
         id="feComposite5167-7" /></filter><filter
       style="color-interpolation-filters:sRGB"
       inkscape:label="Blur"
       id="filter5291-4"><feGaussianBlur
         stdDeviation="2 2"
         result="blur"
         id="feGaussianBlur5289-3" /></filter><linearGradient
       inkscape:collect="always"
       xlink:href="#linearGradient5002"
       id="linearGradient1145"
       x1="-407.57227"
       y1="-112.95508"
       x2="650.95929"
       y2="945.57788"
       gradientUnits="userSpaceOnUse"
       gradientTransform="matrix(0.2645748,0,0,0.2645748,73.9738,33.760737)" /><linearGradient
       inkscape:collect="always"
       xlink:href="#linearGradient8279"
       id="linearGradient1167"
       gradientUnits="userSpaceOnUse"
       x1="-407.57227"
       y1="-112.95508"
       x2="650.95929"
       y2="945.57788"
       gradientTransform="matrix(0.2645748,0,0,0.2645748,73.9738,33.760737)" /><linearGradient
       inkscape:collect="always"
       xlink:href="#linearGradient3129"
       id="linearGradient5487"
       gradientUnits="userSpaceOnUse"
       x1="-2.5352433"
       y1="128.01732"
       x2="-2.5352433"
       y2="159.73479"
       gradientTransform="translate(1.5875)" /><linearGradient
       inkscape:collect="always"
       xlink:href="#linearGradient3129"
       id="linearGradient5489"
       gradientUnits="userSpaceOnUse"
       x1="-2.5352433"
       y1="128.01732"
       x2="-2.5352433"
       y2="159.73479" /><linearGradient
       inkscape:collect="always"
       xlink:href="#linearGradient3129"
       id="linearGradient5491"
       gradientUnits="userSpaceOnUse"
       x1="-2.5352433"
       y1="128.01732"
       x2="-2.5352433"
       y2="159.73479" /><linearGradient
       inkscape:collect="always"
       xlink:href="#linearGradient3129"
       id="linearGradient5493"
       gradientUnits="userSpaceOnUse"
       x1="-2.5352433"
       y1="128.01732"
       x2="-2.5352433"
       y2="159.73479" /><linearGradient
       inkscape:collect="always"
       xlink:href="#linearGradient3129"
       id="linearGradient5495"
       gradientUnits="userSpaceOnUse"
       x1="-2.5352433"
       y1="128.01732"
       x2="-2.5352433"
       y2="159.73479" /><linearGradient
       inkscape:collect="always"
       xlink:href="#linearGradient3129"
       id="linearGradient5497"
       gradientUnits="userSpaceOnUse"
       x1="-2.5352433"
       y1="128.01732"
       x2="-2.5352433"
       y2="159.73479" /><linearGradient
       inkscape:collect="always"
       xlink:href="#linearGradient3129"
       id="linearGradient5499"
       gradientUnits="userSpaceOnUse"
       x1="-2.5352433"
       y1="128.01732"
       x2="-2.5352433"
       y2="159.73479" /></defs><sodipodi:namedview
     id="base"
     pagecolor="#ffffff"
     bordercolor="#666666"
     borderopacity="1.0"
     inkscape:pageopacity="0.0"
     inkscape:pageshadow="2"
     inkscape:zoom="0.70737049"
     inkscape:cx="625.55621"
     inkscape:cy="508.92708"
     inkscape:document-units="mm"
     inkscape:current-layer="layer1"
     showgrid="false"
     fit-margin-top="0"
     fit-margin-left="0"
     fit-margin-right="0"
     fit-margin-bottom="0"
     inkscape:window-width="1920"
     inkscape:window-height="1009"
     inkscape:window-x="-8"
     inkscape:window-y="-8"
     inkscape:window-maximized="1"
     inkscape:showpageshadow="2"
     inkscape:pagecheckerboard="0"
     inkscape:deskcolor="#d1d1d1" /><metadata
     id="metadata5"><rdf:RDF><cc:Work
         rdf:about=""><dc:format>image/svg+xml</dc:format><dc:type
           rdf:resource="http://purl.org/dc/dcmitype/StillImage" /></cc:Work></rdf:RDF></metadata><g
     inkscape:label="Layer 1"
     inkscape:groupmode="layer"
     id="layer1"
     transform="translate(33.859552,-3.8756701)"><path
       style="opacity:1;fill:#59c4f0;fill-opacity:1;stroke:none;stroke-width:6.60000038;stroke-linecap:round;stroke-linejoin:round;stroke-miterlimit:4;stroke-dasharray:none;stroke-opacity:1;paint-order:normal"
       d="M -33.859552,3.8756701 H 246.21045 V 283.94568 H -33.859552 Z"
       id="rect1140"
       inkscape:connector-curvature="0" /><path
       style="opacity:1;fill:url(#linearGradient1145);fill-opacity:1;stroke:none;stroke-width:11.9286747;stroke-linecap:round;stroke-linejoin:round;stroke-miterlimit:4;stroke-dasharray:none;stroke-opacity:1;paint-order:normal"
       d="M -33.859552,3.8756701 V 219.38683 H 181.65109 V 3.8756701 Z"
       id="path1149"
       inkscape:connector-curvature="0" /><path
       style="opacity:1;fill:url(#linearGradient1167);fill-opacity:1;stroke:none;stroke-width:11.9286747;stroke-linecap:round;stroke-linejoin:round;stroke-miterlimit:4;stroke-dasharray:none;stroke-opacity:1;paint-order:normal"
       d="m 181.65264,219.38786 v 64.5578 h 64.55781 v -64.5578 z"
       id="rect1134"
       inkscape:connector-curvature="0" /><path
       style="fill:#ffffff;fill-opacity:1;stroke-width:0.24458669"
       d="m -2.5789812,28.915393 h 6.87288 v 6.872886 h -6.87288 z"
       id="rect4"
       inkscape:connector-curvature="0" /><path
       style="fill:#ffffff;stroke-width:0.24458669"
       d="M 4.1226988,64.722883 V 39.946252 h -6.53047 v 24.752173 h 6.53047 z"
       id="path1090"
       inkscape:connector-curvature="0" /><path
       style="fill:#ffffff;stroke-width:0.24458669"
       d="m 47.365619,64.96747 v -6.06575 c -0.95389,0 -1.76102,-0.04892 -2.34803,-0.146752 -0.68484,-0.09783 -1.19848,-0.342421 -1.5409,-0.684843 -0.34242,-0.342421 -0.56255,-0.831594 -0.68484,-1.491979 -0.0978,-0.611466 -0.14675,-1.418602 -0.14675,-2.396949 v -8.63391 h 4.72052 v -5.601035 h -4.72052 v -9.636714 h -6.53047 v 23.945035 c 0,2.030069 0.17121,3.742176 0.51364,5.111862 0.34242,1.345226 0.92942,2.445867 1.73656,3.277462 0.80714,0.831594 1.88332,1.418602 3.17963,1.785482 1.32077,0.36688 2.98395,0.538091 4.96511,0.538091 z"
       id="path1088"
       inkscape:connector-curvature="0" /><path
       style="fill:#ffffff;stroke-width:0.24458669"
       d="M 84.738469,64.722883 V 28.401761 h -6.53047 v 36.321122 z"
       id="path1086"
       inkscape:connector-curvature="0" /><path
       style="fill:#ffffff;stroke-width:0.24458669"
       d="m 29.828759,42.392119 c -1.80995,-1.956693 -4.35365,-2.93504 -7.58219,-2.93504 -1.56536,0 -3.00842,0.317963 -4.28027,0.953889 -1.29631,0.635925 -2.37249,1.516437 -3.253,2.641536 l -0.34242,0.464714 V 43.101421 39.946252 H 7.9382488 v 24.752173 h 6.4815402 v -13.183223 0.904971 c 0,-0.146751 0,-0.293504 0,-0.440255 0.0734,-2.323574 0.63593,-4.035681 1.71211,-5.136321 1.14956,-1.174016 2.5437,-1.761024 4.13352,-1.761024 1.88331,0 3.32638,0.587008 4.28026,1.712106 0.92943,1.125099 1.41861,2.714913 1.41861,4.744982 v 0 0.07338 c 0,0 0,0 0,0 v 0 13.085388 h 6.57938 v -14.03928 c 0.0245,-3.522048 -0.90497,-6.310337 -2.71491,-8.26703 z"
       id="path1084"
       inkscape:connector-curvature="0" /><path
       id="path1080"
       style="fill:#ffffff;stroke-width:0.24458669"
       d="m 55.436979,50.023224 c 0,-1.809942 2.07899,-4.96511 6.55492,-4.989569 4.47594,0 6.57939,3.155169 6.57939,4.96511 z m 19.39572,2.274656 c 0,-1.785482 -0.31796,-3.448672 -0.92942,-5.014027 -0.63593,-1.540896 -1.51644,-2.910582 -2.61708,-4.084598 -1.1251,-1.174016 -2.47033,-2.078987 -4.03568,-2.73937 -1.56536,-0.660384 -3.30192,-0.978347 -5.18524,-0.978347 -1.78548,0 -3.47313,0.342422 -5.03849,1.002805 -1.56535,0.684843 -2.93504,1.589814 -4.08459,2.739371 -1.14956,1.149557 -2.07899,2.519243 -2.73937,4.084597 -0.68485,1.565355 -1.00281,3.253003 -1.00281,5.038486 0,1.785483 0.31796,3.473131 0.95389,5.038486 0.63592,1.565354 1.54089,2.93504 2.66599,4.084598 1.1251,1.149557 2.51925,2.078986 4.13352,2.73937 1.61427,0.684843 3.39975,1.027264 5.30753,1.027264 5.52766,0 8.95187,-2.519243 11.0064,-4.867275 l -4.69606,-3.570966 c -0.97835,1.174016 -3.32638,2.76383 -6.26142,2.76383 -1.8344,0 -3.35084,-0.415798 -4.5004,-1.271851 -1.14956,-0.831594 -1.93223,-2.005611 -2.34803,-3.448672 l -0.0734,-0.220127 h 19.44464 z"
       inkscape:connector-curvature="0" /><path
       id="path1076"
       style="fill:#ffffff;stroke-width:0.36832049"
       d="m 95.109749,62.487638 c -0.14727,0.36832 -0.36831,0.699808 -0.62615,0.957632 -0.25782,0.257825 -0.5893,0.478817 -0.95762,0.626146 -0.36833,0.147328 -0.73664,0.220991 -1.17863,0.220991 -0.40515,0 -0.81031,-0.07366 -1.17863,-0.220991 -0.36831,-0.147329 -0.6998,-0.368321 -0.95763,-0.626146 -0.25782,-0.257824 -0.47881,-0.589312 -0.62615,-0.957632 -0.14727,-0.368322 -0.22099,-0.736642 -0.22099,-1.178627 0,-0.405152 0.0736,-0.810304 0.22099,-1.178625 0.14728,-0.36832 0.36833,-0.699809 0.62615,-0.957633 0.25783,-0.257824 0.58932,-0.478817 0.95763,-0.626145 0.36832,-0.147328 0.73665,-0.220992 1.17863,-0.220992 0.40516,0 0.8103,0.07366 1.17863,0.220992 0.36832,0.147328 0.6998,0.368321 0.95762,0.626145 0.25784,0.257824 0.47883,0.589313 0.62615,0.957633 0.14728,0.368321 0.22099,0.736641 0.22099,1.178625 0,0.441985 -0.0736,0.810305 -0.22099,1.178627 z m 0.58932,-2.578245 c -0.18416,-0.441984 -0.44198,-0.810304 -0.77347,-1.141792 -0.3315,-0.331488 -0.69982,-0.589314 -1.1418,-0.773473 -0.44198,-0.184161 -0.92081,-0.294657 -1.39962,-0.294657 -0.51565,0 -0.95764,0.110496 -1.39962,0.294657 -0.44198,0.184159 -0.8103,0.441985 -1.14179,0.773473 -0.33149,0.331488 -0.58932,0.699808 -0.77347,1.141792 -0.18416,0.441985 -0.29466,0.920802 -0.29466,1.399618 0,0.51565 0.11053,0.957634 0.29466,1.399619 0.18415,0.441984 0.44198,0.810304 0.77347,1.141793 0.33149,0.331489 0.69981,0.589313 1.14179,0.773474 0.44198,0.184159 0.92081,0.294655 1.39962,0.294655 0.51565,0 0.95764,-0.110496 1.39962,-0.294655 0.44198,-0.184161 0.8103,-0.441985 1.1418,-0.773474 0.33149,-0.331489 0.58931,-0.699809 0.77347,-1.141793 0.18415,-0.441985 0.29465,-0.920802 0.29465,-1.399619 0,-0.478816 -0.11053,-0.957633 -0.29465,-1.399618 z"
       inkscape:connector-curvature="0" /><path
       id="path6"
       style="fill:#ffffff;stroke-width:0.36832049"
       d="m 92.641999,61.014356 c -0.11053,0 -0.22098,0 -0.36832,0 h -0.55248 v -1.178627 h 0.55248 c 0.11053,0 0.221,0 0.36832,0 0.11054,0 0.22099,0.03683 0.3315,0.07367 0.11053,0.03683 0.18415,0.110496 0.22099,0.184161 0.0736,0.07366 0.0736,0.184159 0.0736,0.331488 0,0.147329 -0.0369,0.257825 -0.0736,0.331488 -0.0736,0.07366 -0.14728,0.147329 -0.22099,0.184161 -0.11054,0.03683 -0.22099,0.07366 -0.3315,0.07366 z m 0.40516,0.626144 c 0.29466,-0.03683 0.51565,-0.147328 0.69981,-0.331489 0.18415,-0.184159 0.29465,-0.441984 0.29465,-0.810304 0,-0.405153 -0.11053,-0.699809 -0.36832,-0.920802 -0.22099,-0.220991 -0.62614,-0.331488 -1.10496,-0.331488 h -1.62061 v 4.162021 h 0.77347 v -1.694274 h 0.55248 l 1.03131,1.694274 h 0.8103 z"
       inkscape:connector-curvature="0" /><path
       id="path1076-9"
       style="fill:#ffffff;stroke-width:0.36832"
       d="m 224.58187,132.32893 c -0.14727,0.36832 -0.36831,0.69981 -0.62615,0.95763 -0.25782,0.25783 -0.5893,0.47882 -0.95762,0.62615 -0.36833,0.14733 -0.73664,0.22099 -1.17863,0.22099 -0.40515,0 -0.81031,-0.0737 -1.17863,-0.22099 -0.36831,-0.14733 -0.6998,-0.36832 -0.95763,-0.62615 -0.25782,-0.25782 -0.47881,-0.58931 -0.62615,-0.95763 -0.14727,-0.36832 -0.22099,-0.73664 -0.22099,-1.17863 0,-0.40515 0.0736,-0.8103 0.22099,-1.17862 0.14728,-0.36832 0.36833,-0.69981 0.62615,-0.95763 0.25783,-0.25783 0.58932,-0.47882 0.95763,-0.62615 0.36832,-0.14733 0.73665,-0.22099 1.17863,-0.22099 0.40516,0 0.8103,0.0737 1.17863,0.22099 0.36832,0.14733 0.6998,0.36832 0.95762,0.62615 0.25784,0.25782 0.47883,0.58931 0.62615,0.95763 0.14728,0.36832 0.22099,0.73664 0.22099,1.17862 0,0.44199 -0.0736,0.81031 -0.22099,1.17863 z m 0.58932,-2.57824 c -0.18416,-0.44199 -0.44198,-0.81031 -0.77347,-1.1418 -0.3315,-0.33148 -0.69982,-0.58931 -1.1418,-0.77347 -0.44198,-0.18416 -0.92081,-0.29466 -1.39962,-0.29466 -0.51565,0 -0.95764,0.1105 -1.39962,0.29466 -0.44198,0.18416 -0.8103,0.44199 -1.14179,0.77347 -0.33149,0.33149 -0.58932,0.69981 -0.77347,1.1418 -0.18416,0.44198 -0.29466,0.9208 -0.29466,1.39961 0,0.51565 0.11053,0.95764 0.29466,1.39962 0.18415,0.44199 0.44198,0.81031 0.77347,1.1418 0.33149,0.33148 0.69981,0.58931 1.14179,0.77347 0.44198,0.18416 0.92081,0.29465 1.39962,0.29465 0.51565,0 0.95764,-0.11049 1.39962,-0.29465 0.44198,-0.18416 0.8103,-0.44199 1.1418,-0.77347 0.33149,-0.33149 0.58931,-0.69981 0.77347,-1.1418 0.18415,-0.44198 0.29465,-0.9208 0.29465,-1.39962 0,-0.47881 -0.11053,-0.95763 -0.29465,-1.39961 z"
       inkscape:connector-curvature="0" /><path
       id="path6-1"
       style="fill:#ffffff;stroke-width:0.36832"
       d="m 222.11412,130.85565 c -0.11053,0 -0.22098,0 -0.36832,0 h -0.55248 v -1.17863 h 0.55248 c 0.11053,0 0.221,0 0.36832,0 0.11054,0 0.22099,0.0368 0.3315,0.0737 0.11053,0.0368 0.18415,0.1105 0.22099,0.18416 0.0736,0.0737 0.0736,0.18416 0.0736,0.33149 0,0.14733 -0.0369,0.25783 -0.0736,0.33149 -0.0736,0.0737 -0.14728,0.14733 -0.22099,0.18416 -0.11054,0.0368 -0.22099,0.0737 -0.3315,0.0737 z m 0.40516,0.62614 c 0.29466,-0.0368 0.51565,-0.14733 0.69981,-0.33149 0.18415,-0.18415 0.29465,-0.44198 0.29465,-0.8103 0,-0.40515 -0.11053,-0.69981 -0.36832,-0.9208 -0.22099,-0.22099 -0.62614,-0.33149 -1.10496,-0.33149 h -1.62061 v 4.16202 h 0.77347 v -1.69427 h 0.55248 l 1.03131,1.69427 h 0.8103 z"
       inkscape:connector-curvature="0" /><path
       inkscape:connector-curvature="0"
       id="path6103"
       style="font-style:normal;font-variant:normal;font-weight:500;font-stretch:normal;font-size:73.724px;line-height:1.25;font-family:'IntelOneALT Display';-inkscape-font-specification:'IntelOneALT Display Medium';letter-spacing:0px;word-spacing:0px;fill:url(#linearGradient5487);fill-opacity:1;stroke:none;stroke-width:1.14773"
       d="m 45.354741,155.31294 q 3.030128,0 5.500845,-1.13027 2.517337,-1.17545 4.988054,-3.70731 l 3.449692,3.70731 q -2.890286,3.11964 -6.526433,4.702 -3.589529,1.58249 -7.831717,1.58249 -7.412168,0 -12.167135,-4.61164 -4.70835,-4.6568 -4.70835,-11.89066 0,-7.00777 4.70835,-11.80024 4.708354,-4.79241 11.794193,-4.79241 7.225695,0 11.700953,4.56639 4.475286,4.52116 4.475286,11.75501 0,0.63299 -0.09324,1.26593 -0.04663,0.58769 -0.186472,1.31111 H 34.259806 q 0.699254,4.11429 3.729386,6.60091 3.076745,2.44138 7.365549,2.44138 z M 44.60886,132.3907 q -3.962485,0 -6.806134,2.48669 -2.843666,2.44138 -3.54292,6.55561 h 20.371779 q -0.559398,-4.24989 -3.216588,-6.6461 -2.657187,-2.3962 -6.806137,-2.3962 z" /><path
       d="M -2.5352432,159.73479 V 128.01732 H 12.035588 q 5.447039,0 8.624479,2.76396 3.17744,2.71864 3.17744,7.38563 0,4.667 -3.449793,7.52157 -3.404399,2.85458 -8.987615,2.85458 H 3.2749325 v 11.19173 z M 17.936548,138.25753 q 0,-2.40147 -1.588721,-3.76078 -1.58872,-1.35933 -4.448416,-1.35933 H 3.2749325 v 10.33084 H 11.62706 q 2.905088,0 4.584592,-1.40464 1.724896,-1.40462 1.724896,-3.80609 z"
       id="path2349"
       style="font-weight:500;font-size:73.8735px;font-family:'IntelOne Display';-inkscape-font-specification:'IntelOne Display Medium';fill:url(#linearGradient5489);fill-opacity:1;fill-rule:evenodd;stroke-width:3.77927" /><path
       d="m 71.06768,136.53573 v 23.19906 h -5.628606 v -31.71747 h 6.037138 l 17.385132,23.06314 v -23.06314 h 5.628604 v 31.71747 h -5.946342 z"
       id="path2353"
       style="font-weight:500;font-size:73.8735px;font-family:'IntelOne Display';-inkscape-font-specification:'IntelOne Display Medium';fill:url(#linearGradient5491);fill-opacity:1;fill-rule:evenodd;stroke-width:3.77927" /><path
       d="M 110.57312,133.13742 H 98.998096 v -5.1201 h 29.005554 v 5.1201 H 116.3833 v 26.59737 h -5.81018 z"
       id="path2355"
       style="font-weight:500;font-size:73.8735px;font-family:'IntelOne Display';-inkscape-font-specification:'IntelOne Display Medium';fill:url(#linearGradient5493);fill-opacity:1;fill-rule:evenodd;stroke-width:3.77927" /><path
       d="m 131.15124,159.73479 v -31.71747 h 5.81016 v 31.71747 z"
       id="path2357"
       style="font-weight:500;font-size:73.8735px;font-family:'IntelOne Display';-inkscape-font-specification:'IntelOne Display Medium';fill:url(#linearGradient5495);fill-opacity:1;fill-rule:evenodd;stroke-width:3.77927" /><path
       d="m 158.47603,155.38496 q 4.08528,0 6.58184,-2.67332 2.49656,-2.71864 2.49656,-7.11378 v -17.58054 h 5.76478 v 17.67116 q 0,6.70597 -4.13067,10.73863 -4.08528,4.03266 -10.84869,4.03266 -6.67263,0 -10.71251,-4.03266 -4.03988,-4.03266 -4.03988,-10.73863 v -17.67116 h 5.81017 v 17.58054 q 0,4.39514 2.49656,7.11378 2.54195,2.67332 6.58184,2.67332 z"
       id="path2359"
       style="font-weight:500;font-size:73.8735px;font-family:'IntelOne Display';-inkscape-font-specification:'IntelOne Display Medium';fill:url(#linearGradient5497);fill-opacity:1;fill-rule:evenodd;stroke-width:3.77927" /><path
       id="rect2481"
       style="fill:url(#linearGradient5499);fill-opacity:1;fill-rule:evenodd;stroke-width:0.343298"
       d="m 179.67315,128.01745 v 31.71744 h 5.76451 v -23.03064 l 12.05249,17.45579 12.0525,-17.45579 v 23.03064 h 5.7645 v -31.71744 h -5.7645 l -12.0525,17.95136 -12.05249,-17.95136 z" /></g><style
     type="text/css"
     id="style2">
	.st0{fill:#00C7FD;}
	.st1{fill:#FFFFFF;}
</style></svg>
