<?xml version="1.0" encoding="utf-8"?>
<!-- Generator: Adobe Illustrator 24.1.0, SVG Export Plug-In . SVG Version: 6.00 Build 0)  -->
<svg xmlns:xlink="http://www.w3.org/1999/xlink" version="1.1" id="Layer_1" xmlns="http://www.w3.org/2000/svg" x="0px"
     y="0px"
     viewBox="0 0 54.4250183 54.4239998" enable-background="new 0 0 54.4250183 54.4239998" xml:space="preserve">
<g>
	<defs>
		<rect id="SVGID_1_" width="54.4250183" height="54.4239998"/>
	</defs>
    <clipPath id="SVGID_2_">
		<use xlink:href="#SVGID_1_" overflow="visible"/>
	</clipPath>

    <linearGradient id="SVGID_3_" gradientUnits="userSpaceOnUse" x1="-274.2102661" y1="449.1548767" x2="-273.2102661"
                    y2="449.1548767"
                    gradientTransform="matrix(54.497345 54.497345 54.497345 -54.497345 -9534.0712891 39421.4257813)">
		<stop offset="0" style="stop-color:#001740"/>
        <stop offset="0.0859878" style="stop-color:#001A45"/>
        <stop offset="0.1865907" style="stop-color:#002453"/>
        <stop offset="0.2941376" style="stop-color:#00356A"/>
        <stop offset="0.344246" style="stop-color:#003E78"/>
        <stop offset="0.4164262" style="stop-color:#003971"/>
        <stop offset="0.997458" style="stop-color:#001740"/>
        <stop offset="1" style="stop-color:#001740"/>
	</linearGradient>
    <polygon clip-path="url(#SVGID_2_)" fill="url(#SVGID_3_)" points="27.2124939,-27.2124786 81.6369324,27.2120132 
		27.2124939,81.6365051 -27.2120056,27.2120094 	"/>
</g>
    <rect x="41.8910217" fill="#00447A" width="12.5339966" height="41.9269981"/>
    <rect y="41.927002" fill="#00447A" width="41.8910217" height="12.4969997"/>
    <g>
	<defs>
		<rect id="SVGID_4_" y="-0.0009995" width="54.4259949" height="54.4249992"/>
	</defs>
        <clipPath id="SVGID_5_">
		<use xlink:href="#SVGID_4_" overflow="visible"/>
	</clipPath>
        <path clip-path="url(#SVGID_5_)" fill="#FFFFFF" d="M50.0509949,22.2580986c0.3179932,0,0.5769653,0.2590027,0.5769653,0.5769997
		c0,0.3180008-0.2589722,0.5769997-0.5769653,0.5769997c-0.3180542,0-0.5770264-0.2589989-0.5770264-0.5769997
		C49.4739685,22.5171013,49.7329407,22.2580986,50.0509949,22.2580986 M50.0509949,22.1620979
		c-0.3720093,0-0.6730347,0.302002-0.6730347,0.6730003c0,0.3710022,0.3010254,0.6730003,0.6730347,0.6730003
		c0.3719482,0,0.6729736-0.3019981,0.6729736-0.6730003C50.7239685,22.4640999,50.4229431,22.1620979,50.0509949,22.1620979"/>
        <path clip-path="url(#SVGID_5_)" fill="#FFFFFF" d="M50.1004333,22.4983978c0.0419922,0,0.0799561,0.0100021,0.1139526,0.0279999
		c0.03302,0.0180016,0.0599976,0.0440025,0.0790405,0.0760002c0.0189819,0.0320015,0.0279541,0.0680008,0.0279541,0.1080017
		c0,0.0480003-0.0130005,0.0890007-0.0379639,0.1220016c-0.0250244,0.0319977-0.0549927,0.0559998-0.0900269,0.0699997
		l0.1520386,0.2689972h-0.1199951l-0.1390381-0.25h-0.1589966v0.25h-0.1060181v-0.6730003H50.1004333z M50.1004333,22.8253975
		c0.0219727,0,0.0419922-0.0049973,0.05896-0.0149994c0.0180054-0.0099983,0.0310059-0.0239983,0.0419922-0.0410004
		c0.0090332-0.0169983,0.0140381-0.0369987,0.0140381-0.0589981c0-0.0229988-0.0050049-0.0419998-0.0140381-0.0600014
		c-0.0109863-0.0179977-0.0239868-0.0309982-0.0419922-0.0410004c-0.0169678-0.0099983-0.0369873-0.0149994-0.05896-0.0149994
		h-0.1730347v0.230999H50.1004333z"/>
        <rect x="5.9840088" y="4.8460007" clip-path="url(#SVGID_5_)" fill="#FFFFFF" width="1.3389893"
              height="1.3389969"/>
        <path clip-path="url(#SVGID_5_)" fill="#FFFFFF" d="M7.2876892,6.9956055H6.0187073v4.8159943h1.2689819V6.9956055z
		 M15.6966858,11.8605995v-1.1809998c-0.1859741-0.0009995-0.3410034-0.0099983-0.4580078-0.0289993
		c-0.132019-0.0200005-0.2319946-0.0649986-0.2979736-0.132c-0.0670166-0.0670013-0.1119995-0.1629982-0.132019-0.2879982
		c-0.0200195-0.1190033-0.0300293-0.2750015-0.0300293-0.4650002V8.081604h0.9180298V6.9956055H14.778656V5.119606h-1.2689514
		v4.6559944c0,0.3919983,0.0339966,0.7270012,0.1019897,0.993c0.0660095,0.2630005,0.1799927,0.4780006,0.3379822,0.6389999
		c0.1569824,0.1609993,0.3660278,0.2779999,0.6190186,0.3470001c0.2559814,0.0709991,0.5809937,0.105999,0.9680176,0.105999
		H15.6966858z M22.9686584,4.7486038h-1.2689819v7.0639954h1.2689819V4.7486038z M12.2867126,7.4706039
		c-0.3510132-0.3789978-0.8480225-0.5719986-1.4760132-0.5719986c-0.302002,0-0.5830078,0.0629959-0.8320007,0.1849976
		c-0.25,0.1240005-0.4620056,0.2959976-0.6300049,0.5139999L9.2786865,7.6865997V7.6066055V6.9956055H8.0267029v4.8169937h1.2609863
		V9.2466011l0.0010071,0.1779976c0-0.0299988,0.0020142-0.0579987,0.0020142-0.086998
		c0.0130005-0.4500008,0.125-0.7859993,0.3349915-0.9980011c0.2229919-0.2269974,0.4930115-0.3429947,0.8049927-0.3429947
		c0.3659973,0,0.6450195,0.1119995,0.8300171,0.3329964c0.1809998,0.2169991,0.2739868,0.5279999,0.276001,0.9230003v0.0099983
		v0.0019989v2.5480003h1.2809753V9.0786018C12.817688,8.3916016,12.6387024,7.8506012,12.2867126,7.4706039 M21.0386658,9.3945999
		c0-0.3450012-0.0619507-0.6730003-0.1829834-0.973999c-0.1209717-0.3009949-0.2929688-0.5680008-0.5109863-0.7949982
		c-0.21698-0.2259979-0.4810181-0.4059982-0.7839966-0.5339966c-0.3040161-0.128006-0.644043-0.1930008-1.0079956-0.1930008
		c-0.3450317,0-0.6740112,0.0659943-0.9780273,0.1969986c-0.3040161,0.1319962-0.5709839,0.3119965-0.7960205,0.5359955
		c-0.2229614,0.2229996-0.4029541,0.4910049-0.5339966,0.795002c-0.131958,0.3029976-0.197998,0.632-0.197998,0.9780006
		c0,0.3449974,0.0630493,0.6749992,0.1880493,0.9779968c0.125,0.3050003,0.2999878,0.5720024,0.5199585,0.795002
		c0.2210083,0.223999,0.4910278,0.4039993,0.8049927,0.5349998c0.3130493,0.1310005,0.6610107,0.1969986,1.0320435,0.1969986
		c1.072998,0,1.742981-0.487999,2.1430054-0.9449997l-0.9140015-0.6949997
		c-0.1920166,0.2280006-0.6490479,0.538002-1.2189941,0.538002c-0.3580322,0-0.6530151-0.0830002-0.8760376-0.2460022
		c-0.223999-0.1629982-0.3779907-0.3889999-0.4580078-0.6689987l-0.0130005-0.0439987h3.7839966V9.3945999z M17.2657166,8.9525986
		c-0.0010376-0.3529968,0.4039917-0.9679947,1.2769775-0.9689941c0.8729858,0,1.2780151,0.6149979,1.2780151,0.9669952
		L17.2657166,8.9525986z"/>
        <path clip-path="url(#SVGID_5_)" fill="#FFFFFF" d="M24.4430237,10.5904999c0.3179932,0,0.5769653,0.2590027,0.5769653,0.5769997
		c0,0.3180008-0.2589722,0.5769997-0.5769653,0.5769997c-0.3180542,0-0.5770264-0.2589989-0.5770264-0.5769997
		C23.8659973,10.8495026,24.1249695,10.5904999,24.4430237,10.5904999 M24.4430237,10.4944992
		c-0.3720093,0-0.6730347,0.3010025-0.6730347,0.6730003c0,0.3710022,0.3010254,0.6730003,0.6730347,0.6730003
		c0.3719482,0,0.6729736-0.3019981,0.6729736-0.6730003C25.1159973,10.7955017,24.8149719,10.4944992,24.4430237,10.4944992"/>
        <path clip-path="url(#SVGID_5_)" fill="#FFFFFF" d="M24.4924011,10.8306999c0.0419922,0,0.0799561,0.0100021,0.1139526,0.0279999
		c0.0339966,0.019001,0.0599976,0.0440025,0.0790405,0.0760002c0.0189819,0.0320015,0.0279541,0.0680008,0.0279541,0.1080017
		c0,0.0480003-0.0119629,0.0890007-0.0379639,0.1220016c-0.0239868,0.0319977-0.0549927,0.0559998-0.0900269,0.0699997
		l0.1520386,0.2689972h-0.1199951l-0.1390381-0.25h-0.15802v0.25h-0.1069946v-0.6730003H24.4924011z M24.4924011,11.1576996
		c0.0219727,0,0.0419922-0.0049973,0.05896-0.0149994c0.0180054-0.0099983,0.0310059-0.0239983,0.0419922-0.0410004
		c0.0100098-0.0169983,0.0140381-0.0369987,0.0140381-0.0589981c0-0.0229988-0.0040283-0.0429993-0.0140381-0.0600014
		c-0.0109863-0.0179977-0.0239868-0.0309982-0.0419922-0.0410004c-0.0169678-0.0099983-0.0369873-0.0149994-0.05896-0.0149994
		H24.320343v0.230999H24.4924011z"/>
</g>
    <g>
	<defs>
		<path id="SVGID_6_" d="M13.3869934,22.2869987l-3.0139771,3.7400017l-3.0130005-3.7400017H5.446991l3.9700012,4.9259987
			L5.446991,32.1389999h1.9130249l3.0130005-3.7400017l3.0139771,3.7400017h1.9130249l-3.9700012-4.9260025l3.9700012-4.9259987
			H13.3869934z M46.7859802,22.2869987v7.276001l-6.2259521-7.276001h-1.3370361v9.8520012h1.5480347v-7.276001l6.2259521,7.276001
			h1.3370361v-9.8520012H46.7859802z M20.7250061,23.553997c1.8109741,0,3.2880249,1.2750015,3.5969849,2.9880028h-7.1950073
			C17.4369812,24.8289986,18.914032,23.553997,20.7250061,23.553997 M15.5179749,27.2140007
			c0,2.8139992,2.2520142,5.0659981,5.2070313,5.0659981c2.1710205,0,3.526001-0.8510017,4.4450073-1.9350014l-1.1990356-0.9169998
			c-0.8469849,1.0559998-1.9099731,1.4700012-3.2459717,1.4700012c-1.7979736,0-3.2689819-1.2830009-3.59198-2.9780006h8.75
			c0.0310059-0.2319984,0.0489502-0.4669991,0.0489502-0.7059975c0-2.8150024-2.2509766-5.0670013-5.2069702-5.0670013
			C17.769989,22.1469994,15.5179749,24.3989983,15.5179749,27.2140007 M28.6949768,27.2140007
			c0-2.0410004,1.6190186-3.6600037,3.6610107-3.6600037c2.0390015,0,3.65802,1.6190033,3.65802,3.6600037
			c0,2.0399971-1.6190186,3.6579971-3.65802,3.6579971C30.3139954,30.8719978,28.6949768,29.2539978,28.6949768,27.2140007
			 M27.1479797,27.2140007c0,2.8139992,2.2520142,5.0659981,5.2080078,5.0659981
			c2.9540405,0,5.2059937-2.2519989,5.2059937-5.0659981c0-2.8150024-2.2519531-5.0670013-5.2059937-5.0670013
			C29.3999939,22.1469994,27.1479797,24.3989983,27.1479797,27.2140007"/>
	</defs>
        <clipPath id="SVGID_7_">
		<use xlink:href="#SVGID_6_" overflow="visible"/>
	</clipPath>

        <linearGradient id="SVGID_8_" gradientUnits="userSpaceOnUse" x1="-231.5823059" y1="470.4664001"
                        x2="-230.5822601" y2="470.4664001"
                        gradientTransform="matrix(0 -10.1326656 -10.1326656 0 4793.9692383 -2314.2661133)">
		<stop offset="0" style="stop-color:#B2C7D7"/>
            <stop offset="0.0039063" style="stop-color:#B2C7D7"/>
            <stop offset="0.7873371" style="stop-color:#FFFFFF"/>
            <stop offset="1" style="stop-color:#FFFFFF"/>
	</linearGradient>
        <rect x="5.446991" y="22.1469994" clip-path="url(#SVGID_7_)" fill="url(#SVGID_8_)" width="42.8869629"
              height="10.1329994"/>
</g>
    <g>
</g>
    <g>
</g>
    <g>
</g>
    <g>
</g>
    <g>
</g>
    <g>
</g>
</svg>
