<?xml version="1.0" encoding="UTF-8" standalone="no"?>
<svg
        xmlns:rdf="http://www.w3.org/1999/02/22-rdf-syntax-ns#"
        xmlns:cc="http://creativecommons.org/ns#"
        xmlns:dc="http://purl.org/dc/elements/1.1/"
        viewBox="0 0 1260 407"
        height="407"
        width="1260"
        id="svg833"
        version="1.1"
        xmlns="http://www.w3.org/2000/svg">
    <metadata
            id="metadata839">
        <rdf:RDF>
            <cc:Work
                    rdf:about="">
                <dc:format>image/svg+xml</dc:format>
                <dc:type
                        rdf:resource="http://purl.org/dc/dcmitype/StillImage"/>
            </cc:Work>
        </rdf:RDF>
    </metadata>
    <defs
            id="defs837"/>
    <g
            id="g841">
        <g
                id="g845">
            <path
                    id="path847"
                    d="m 1,345 v -52 h 68.3 c 51.78889,0 68.59009,-0.29009 69.5,-1.2 1.26456,-1.26456 1.77748,-29.13153 0.59301,-32.21821 C 138.84764,258.16058 131.79194,258 69.893011,258 H 1 v -17 -17 h 72.462487 c 70.646173,0 72.600073,0.0515 77.951633,2.05375 6.77951,2.53654 14.91861,9.69594 18.05173,15.87886 C 172.96749,248.84276 174,256.48669 174,275.5 c 0,18.46179 -1.04604,26.70976 -4.16207,32.81769 -4.91369,9.63162 -15.49809,17.14411 -25.88818,18.37467 -2.72236,0.32242 -4.94975,0.72256 -4.94975,0.88919 0,0.16663 3.98771,7.19145 8.86158,15.61071 4.87387,8.41925 13.85819,23.97024 19.96516,34.55774 L 178.93032,397 159.21516,396.98629 139.5,396.97258 119.49037,362.23629 99.480732,327.5 67.240366,327.23615 35,326.97229 V 361.98615 397 H 18 1 Z m 204.5159,46.272 c 1.36279,-3.1746 18.16625,-41.997 37.34102,-86.272 l 34.86321,-80.5 17.42441,-0.2722 17.42441,-0.27219 36.68161,84.77219 c 20.17489,46.62471 36.97002,85.5597 37.32251,86.5222 0.59569,1.62653 -0.6588,1.75 -17.78017,1.75 h -18.42108 l -7.4925,-17.25 -7.49249,-17.25 -40.06715,-0.26124 -40.06714,-0.26123 -7.42531,17.26123 -7.42531,17.26124 -18.68191,0.272 -18.68192,0.27199 z M 320,327.45182 c 0,-0.83156 -23.80349,-55.58865 -24.44297,-56.22812 -0.30637,-0.30637 -0.69885,-0.36953 -0.87218,-0.14037 -0.27665,0.36578 -11.19084,25.56715 -21.19058,48.93006 L 270.07586,328 h 24.96207 C 308.76707,328 320,327.75332 320,327.45182 Z m 101,17.585 V 293 h 17 17 v 35 35 h 51.37756 c 42.16479,0 51.58048,-0.24451 52.50923,-1.3636 0.8172,-0.98466 1.05965,-15.50457 0.87245,-52.25 L 559.5,258.5 490.25,258.24315 421,257.98631 v -17.01789 -17.0179 l 74.25,0.27474 74.25,0.27474 4.57557,2.25477 c 7.43609,3.66438 12.55213,8.74356 16.13243,16.01618 l 3.292,6.687 V 310.47897 371.5 l -2.93208,5.79048 c -3.57163,7.05349 -9.82074,12.99948 -17.39277,16.54911 L 567.5,396.5 494.25,396.78682 421,397.07365 Z M 641,345 v -52 h 86.5 86.5 v 16.99315 16.99316 L 744.75,327.24315 675.5,327.5 v 17.5 17.5 l 69.25,0.25685 69.25,0.25684 V 380.00685 397 H 727.5 641 Z m 247.97225,50.66465 C 878.53252,393.37166 869.11692,385.81043 864.63733,376.1224 862.5275,371.55947 862.5,370.7087 862.5,310 v -61.5 l 2.46807,-5 c 3.16364,-6.40917 10.16235,-13.41245 16.53193,-16.54277 l 5,-2.45723 h 62 62 l 4.5,2.38666 c 9.7087,5.14919 15.8345,12.58218 18.4568,22.39536 1.476,5.5231 1.6271,12.64381 1.3524,63.71798 l -0.3092,57.5 -2.7038,5.76992 c -3.5468,7.56899 -11.166,14.92891 -18.5347,17.90391 L 1007.5,396.5 951,396.68939 c -41.23196,0.1382 -57.99377,-0.13871 -62.02775,-1.02474 z M 999.88679,361.6364 c 0.81721,-0.98466 1.05961,-15.50457 0.87241,-52.25 L 1000.5,258.5 h -52 -52 l -0.25918,51.43531 c -0.20401,40.48547 0.009,51.60548 1,52.23469 0.69255,0.43965 23.81658,0.80627 51.38674,0.81469 41.12326,0.0126 50.33083,-0.22963 51.25923,-1.34829 z M 1082,310.5 V 224 l 17.75,0.0708 17.75,0.0708 51.5,59.98311 51.5,59.98312 0.2578,-60.05391 0.2578,-60.05391 H 1238.0078 1255 v 86.5 86.5 h -16.9644 -16.9644 l -52.2856,-60.70129 -52.2856,-60.70129 -0.2577,60.70129 -0.2578,60.70129 H 1098.9923 1082 v -86.5 z M 641,241 v -17 h 86.5 86.5 v 17 17 H 727.5 641 Z M 493,123.74107 V 93.48214 L 514,72.5 535,51.51786 V 81.25893 111 h 30.24128 30.24128 L 574,132.5 552.51744,154 H 522.75872 493 Z m 132.24085,7 L 605,110.48213 V 76.241067 42 H 570.74085 536.4817 L 516,21.5 495.5183,1 H 570.75915 646 v 75 c 0,41.25 -0.11662,75 -0.25915,75 -0.14253,0 -9.36753,-9.11652 -20.5,-20.25893 z M 1.4377572,142.27411 C 1.8063897,141.29835 13.844039,111.3625 28.188089,75.75 L 54.268181,11 h 19.148442 19.148443 l 29.217694,65.75 c 16.06973,36.1625 29.21759,66.0875 29.21747,66.5 -1.3e-4,0.4125 -7.76273,0.7437 -17.25023,0.73599 L 116.5,143.97199 110.98544,130.736 105.47088,117.5 75.399881,117.23558 45.328886,116.97116 40.395394,130.23558 35.461902,143.5 18.114709,143.77411 c -16.2581322,0.25691 -17.30511475,0.16274 -16.6769518,-1.5 z M 94.702135,91.75 C 83.991974,65.473939 74.416219,43 73.930608,43 73.473019,43 61.745189,73.231668 54.243061,93.75 53.886582,94.72497 58.433017,95 74.906431,95 H 96.02684 Z M 168,77.5 V 11 h 14.28405 14.28405 l 19.7941,22.91574 c 10.88676,12.603657 20.61489,23.658537 21.61807,24.5664 1.73191,1.567362 2.89578,0.410957 23.06366,-22.91574 L 282.28363,11 H 296.64182 311 V 77.5 144 H 294.51097 278.02194 L 277.76097,102.38578 277.5,60.77155 259.70711,81.385775 c -15.1755,17.581809 -18.19111,20.604665 -20.5,20.549255 -2.25475,-0.0541 -5.62587,-3.479705 -20.17406,-20.500005 C 209.42622,70.195761 201.21372,61 200.78305,61 200.35237,61 200,79.675 200,102.5 V 144 h -16 -16 z m 169,0 V 11 l 34.75,0.01314 c 30.50642,0.01153 35.91012,0.251291 44.25,1.963343 31.62017,6.491142 51.34745,29.139054 52.7636,60.575293 1.54148,34.218074 -15.07541,57.802554 -46.7636,66.371974 -11.87426,3.21115 -23.39282,4.05926 -55.25,4.06805 L 337,144 Z m 67.91337,40.95872 c 17.48704,-4.12195 27.16441,-15.18661 30.1581,-34.481401 1.91905,-12.368589 -1.64875,-26.63433 -8.95673,-35.813213 -1.6045,-2.015258 -5.3242,-5.107552 -8.266,-6.871763 C 409.54004,36.309586 402.76377,35 385.2899,35 H 370 V 77.5 120 l 14.25,-0.0148 c 9.17106,-0.01 16.53583,-0.55359 20.66337,-1.5265 z"
                    style="fill:#ffffff"/>
        </g>
    </g>
</svg>
