<?xml version="1.0" encoding="UTF-8" standalone="no"?>
<svg
        clip-rule="evenodd"
        fill-rule="evenodd"
        height="305.75336"
        image-rendering="optimizeQuality"
        shape-rendering="geometricPrecision"
        text-rendering="geometricPrecision"
        viewBox="-2.2737368e-13 -13.05 2073.2441 1304.8575"
        width="487.04974"
        version="1.1"
        id="svg4"
        xmlns="http://www.w3.org/2000/svg"
>
    <defs
            id="defs4"/>
    <linearGradient
            id="a"
            gradientUnits="userSpaceOnUse"
            x1="3341.1699"
            x2="7132.3301"
            y1="5621.3301"
            y2="1929.9399"
            gradientTransform="matrix(0.19532041,0,0,0.19532041,-2.798635,-13.043421)">
        <stop
                offset="0"
                stop-color="#9d141c"
                id="stop1"/>
        <stop
                offset=".6"
                stop-color="#c04215"
                id="stop2"/>
        <stop
                offset="1"
                stop-color="#e4700d"
                id="stop3"/>
    </linearGradient>
    <path
            d="m 858.02917,234.17753 c 16.8562,-6.85186 23.59673,-15.02805 43.87481,-15.55357 7.34017,-8.01586 31.21808,-10.93597 34.55611,-19.52025 2.461,-6.33038 1.0665,-6.98067 7.6077,-10.69971 7.7757,-4.42009 20.5361,-5.9377 30.4036,-5.48651 16.0046,0.73257 28.10861,-4.11535 31.35081,3.40059 -5.0118,2.22078 -8.35571,1.31055 -12.33251,4.92204 -4.4552,4.04695 -1.4433,1.78721 -6.9123,4.00617 -4.5275,1.83575 -1.043,0.97639 -4.3596,2.87307 -1.5254,-4.20527 -6.1662,-8.85186 -12.0434,-8.85589 -0.9552,0 -18.0026,3.09383 -18.5769,3.27944 3.0684,16.44606 16.3463,-6.20529 24.9716,18.75274 0.1974,-0.23647 0.3673,-0.98434 0.4395,-0.81264 0.073,0.17202 0.3341,-0.61917 0.4317,-0.79682 2.3556,-4.24042 0.4219,-2.49219 2.4513,-3.76376 2.6134,3.64261 4.6467,11.3226 7.6995,-0.26769 5.553,5.44362 16.33461,-0.0715 27.68871,-3.4298 6.9826,-2.0684 21.6531,-8.29716 29.257,-6.8578 -1.0001,5.99843 -9.0355,7.27383 -10.0942,13.18616 5.1994,-0.58594 12.3305,-6.35374 18.8134,-8.42597 17.2837,-5.52378 36.4486,-4.00999 53.3634,-3.73274 9.6918,0.15882 19.1003,-0.81827 28.7941,0.16054 4.4865,0.40616 8.7036,1.31256 12.9517,1.88863 8.4749,1.15061 30.0403,1.05282 34.933,9.74476 0.1602,0.2832 0.5626,1.246 0.6817,1.51167 l 0.625,1.57028 c 7.1547,-1.93153 7.5512,-1.13854 14.696,0.46116 30.9465,6.92205 4.8341,9.04906 21.2625,15.54742 23.5909,9.33437 43.2733,24.40532 47.461,26.29012 7.5862,3.41228 6.6116,-7.64867 25.5889,5.67797 l 34.0151,21.26256 c 16.8111,9.55513 29.0148,33.94092 36.8275,36.61076 -4.5899,-6.92205 -23.1415,-24.29002 -22.6825,-34.30208 14.8054,-4.7756 27.0598,19.05941 37.732,33.48763 l 28.9387,45.86517 c 4.1955,5.01398 1.5157,-0.72854 3.4943,5.02949 2.3184,6.75417 6.1096,11.151 11.6665,16.59451 2.6739,2.61918 7.4163,4.65445 9.0004,9.36176 6.2326,18.51829 13.1353,11.60581 19.2019,36.19474 2.7248,11.04343 7.7796,18.34456 9.5687,29.23565 17.8953,59.67025 37.7906,136.06791 40.9079,210.17831 0.3437,-0.33 0.8281,-0.7657 1.7813,-1.4043 0.6133,6.5529 -0.2636,10.5179 1.17,17.2311 1.5021,7.0355 1.4689,9.4105 0.3985,16.8249 -2.4025,16.6745 3.7189,4.4513 -5.0589,32.2864 l -0.5272,0.6193 c -2.9924,24.6143 -8.6645,48.2733 -17.8193,70.1804 -15.2798,47.3887 -19.6687,68.0849 -45.9549,108.9635 -8.0511,12.5219 -1.332,5.9474 -14.6725,23.2588 l -17.3854,21.5847 c -8.2523,11.4516 -3.3575,8.5649 -17.0319,21.9541 -5.9085,5.7855 -13.4146,12.5748 -17.7683,21.52246 l -17.6376,17.819 c -3.6719,3.0704 -4.7188,2.502 -4.8282,8.0316 -5.7327,-1.9689 -1.5665,-1.9611 -6.6858,3.1406 -6.764,6.7367 -19.4109,11.9049 -24.9054,20.6161 -5.5861,-0.791 -5.3107,-2.2442 -10.7386,3.2637 -0.2187,0.2227 -0.7989,0.9065 -1.0235,1.129 l -1.1348,1.0645 c -0.3124,0.2717 -1.9162,1.4397 -2.5117,1.9318 -1.9729,1.631 -2.9769,2.8829 -4.512,4.5178 6.3127,-0.459 6.1604,-2.9669 11.5141,0.332 l 4.3244,2.1739 c -4.5451,3.9025 -3.8831,6.6371 -11.0805,6.7464 2.6817,-4.1193 2.627,-1.5313 4.8107,-6.0764 -5.5178,0.7206 -8.5589,3.5119 -13.2232,5.7755 -2.5118,1.2209 0.8497,0.2482 -2.0235,0.5745 -3.1779,0.3612 1.8692,-0.3457 -2.3693,-0.103 -4.0919,0.2344 -4.086,1.1387 -6.7384,4.5979 l -3.0627,3.4395 c -6.1702,5.0802 -12.6743,8.6469 -19.1199,12.3267 -6.6527,3.797 -9.9926,4.592 -16.2683,9.6097 -0.09,4.672 1.6817,4.3889 -0.6777,7.0549 l 5.2404,1.0061 c -8.7229,5.7112 -4.9025,-3.4688 -15.6646,5.8518 -2.8635,2.4805 -2.7424,2.0938 -3.4182,6.6759 l 17.239,-6.0255 c -2.2131,1.0683 -4.1681,2.7364 -6.8752,4.0782 -6.0863,3.0138 -4.4339,0.2306 -6.9125,6.0667 -4.7931,-4.9201 -7.6195,0.7715 -10.4281,5.5256 3.8889,-0.8106 4.0665,-2.3633 7.3128,-1.1015 -2.1759,1.0195 -6.8089,2.1249 -8.6821,4.4513 -3.0488,3.7873 -0.1952,6.051 -5.3908,8.2289 l 2.7755,-6.8578 c -8.889,-0.3828 -2.3789,2.8692 -8.4866,5.9475 -5.7541,2.9005 -4.4807,-0.7852 -10.022,5.1253 -3.5665,3.8047 -2.586,-0.4884 -2.8946,4.9219 -0.3047,5.3423 1.2559,3.8127 4.2775,6.6938 l 2.1486,1.916 c 1.916,1.6075 0.7148,0.4277 2.3594,2.7874 6.2288,0.3787 7.3031,-0.3282 9.3968,-3.1429 3.1155,-4.1817 -2.2558,-0.047 2.2286,-3.1113 6.0648,-0.8321 7.0746,1.2518 11.3541,2.4179 3.8693,-6.0784 -0.06,-1.9766 6.1545,-4.6272 2.6037,-1.1113 4.3615,-2.5234 8.0961,-3.3008 -0.2129,0.2148 -0.4884,0.2812 -0.5821,0.6954 -0.543,2.3438 -4.3829,3.9065 -6.0451,5.2931 -0.1759,0.1469 -0.4122,0.3633 -0.5802,0.5177 -6.0549,5.5607 -1.6426,3.6193 -11.2466,4.172 -0.1347,0 -0.4745,0 -0.6992,0.075 l 0.015,1.2501 c 0.3477,2.9355 1.9299,0.8847 -0.4023,4.7424 -4.4103,7.2874 -3.1661,0.1131 -5.594,5.1798 1.2169,5.0238 3.4846,4.4592 8.4828,4.6506 l 1.8301,4.0118 c 0.3477,-0.1249 1.8029,-2.127 2.0119,-2.2305 3.0567,-1.5176 3.838,0.9278 10.5219,-3.8868 5.1076,-3.678 5.9905,-6.1312 13.1412,-8.5551 6.1428,-2.0801 16.0846,-2.3868 18.3151,-8.8186 1.7755,-5.1136 -1.0195,-1.383 -0.1679,-6.5903 0.1719,-1.0547 0.668,-2.7873 0.8535,-4.4787 l 9.1645,-1.8163 c -0.8047,-0.3907 -2.258,-1.4494 -3.3302,-2.6115 0.6093,-0.6114 1.1231,-1.0138 1.5743,-1.463 l 1.9727,-2.0527 c -6.0491,0.7716 -3.3927,0.787 -7.0159,4.4748 l -3.0372,-5.3245 -2.2735,4.8126 c -1.172,2.1193 -0.3458,1.4981 -3.1897,2.3712 0.07,-0.2051 0.2852,-0.707 0.3185,-0.5664 l 1.2305,-3.9553 c -7.8793,-0.203 -2.9456,2.7541 -6.9222,6.3695 -6.2405,5.6721 -5.3441,-2.9533 -5.9339,9.385 -7.8206,0 -2,2.7171 -7.4026,4.9906 -2.8635,-5.4865 2.1896,0.7636 -0.4805,-3.5002 -1.6348,-2.6114 1.6309,0.4415 -1.5411,-1.336 -0.2108,-0.1165 -0.586,-0.2305 -0.7988,-0.3281 -0.2656,-0.1216 -1.4864,-0.4122 -1.8087,-0.5723 0.1894,-0.2383 0.4726,-0.8946 0.5625,-0.715 l 2.4708,-3.5703 c 0.6719,-1.2384 1.6818,-2.9748 0.8595,-5.1956 -7.1643,-2.0665 -14.6354,7.2328 -21.2802,7.5081 3.6369,-1.9473 17.4674,-11.2719 22.456,-11.6977 7.6937,-0.6582 -0.4961,4.8206 17.9461,-3.9922 9.1136,-4.3537 8.1057,-3.7482 4.0919,-11.8912 3.6856,-2.7697 8.3362,-3.6525 12.9849,-5.9847 3.0744,-1.5411 3.6485,-2.9415 7.971,-3.7833 -3.3009,15.6549 -10.016,1.8732 -17.0632,15.1822 4.4807,2.8537 -0.9317,0.5664 5.1935,0.9825 2.5803,0.1758 2.3713,0.3515 5.0511,0.9631 -0.3302,-3.5432 -0.2598,-2.678 -1.8829,-4.9379 l 4.2209,-1.3301 c 1.5157,3.588 -2.9728,2.2208 2.0918,3.9924 0.5196,-0.8985 4.885,-10.6118 5.3029,-11.8599 0.2071,0.2227 0.4259,0.3242 0.5177,0.752 0.09,0.4238 0.3867,0.5742 0.5176,0.7421 2.5841,3.3655 3.5001,3.7678 8.1527,3.1019 0.3282,-0.047 1.2149,-0.2071 1.5,-0.2502 0.1856,-0.027 0.5332,-0.079 0.6934,-0.1047 0.1583,-0.022 0.5547,-0.07 0.6796,-0.087 0.1251,-0.017 0.4552,-0.02 0.676,-0.071 0.3965,-2.0449 -0.1133,-6.1409 -1.5783,-8.4964 -3.9533,-6.3576 -1.5391,2.6057 -3.6935,-3.4415 1.1934,-1.0938 6.2621,-4.0276 9.0161,-4.3888 l 2.166,4.84 8.4808,-4.7444 c -1.414,6.3929 -3.6955,3.2913 -8.1957,8.0901 1.0997,3.3225 -1.5703,0.8575 3.7756,2.7932 -4.4845,3.0021 -1.002,2.4688 -4.0627,7.4104 l -2.1661,-4.4844 -3.6466,5.7091 c -2.0157,3.7756 -3.6036,5.0646 -9.3519,5.8968 -1.7052,-2.9982 -1.2676,-4.4144 -4.5138,-5.5216 -2.6095,7.9709 2.9727,11.2581 -10.5786,9.3439 l 2.3946,12.1158 c 8.0432,-1.4902 7.2913,-6.676 15.7721,-6.342 0.7677,-11.3424 0.6017,-7.1565 9.9242,-7.7991 3.8419,-4.5042 2.0333,-6.9517 11.6353,-6.5628 -1.0548,4.6486 -1.2052,3.707 -4.4904,5.4396 l 2.5274,1.5568 c 2.1779,1.5879 1.1192,-0.2169 2.4923,2.1913 l -7.8675,2.3049 1.2442,2.7226 c 0.084,6.7387 -2.4962,-4.2051 -0.1251,1.5235 7.1098,-2.0273 7.0454,-3.125 13.8405,-0.3124 l 2.0431,-6.0276 c 8.3128,0.5977 9.3011,-2.418 12.5922,1.4944 -7.1311,2.1503 -18.069,6.7462 -26.376,9.9534 -8.0316,3.1016 -18.7332,8.2385 -27.2355,10.1057 0.6212,5.9516 2.3068,1.0022 -0.013,4.8498 -8.176,0.6662 0.01,-0.3494 -3.8731,-2.0214 -2.5099,-1.082 -2.8009,-0.1738 -4.467,1.2754 -5.4475,4.7366 -1.3789,2.6251 -9.6976,4.3615 -6.7092,1.4023 -12.4263,5.9807 -19.5262,8.5863 -14.3229,5.2561 3.0723,2.842 -18.5145,7.516 -16.1842,3.5041 -9.5629,5.4064 -17.8542,9.7153 -0.1933,0.1013 -0.584,0.2187 -0.8458,0.3866 4.7522,-0.5527 5.6233,-2.5919 7.7875,-1.2716 -4.676,6.1292 -19.9383,6.4829 -23.1357,7.0394 -5.2346,0.914 -20.413,3.7756 -22.2899,8.1234 4.0684,1.879 8.0315,-1.1779 13.8365,-1.0527 -2.9045,4.1603 -3.8127,1.6191 -9.4731,6.4455 l -3.5607,3.502 c 17.9792,-2.7579 16.7799,-7.1935 20.3425,-10.5295 2.6448,-2.4767 3.9924,-2.008 6.7269,-3.7815 l 1.5548,0.9454 c 4.5451,3.0606 5.5842,3.9728 16.5769,0.8906 12.0141,-3.3693 7.1174,-2.5489 10.9456,-5.5687 1.635,-1.2909 1.9631,-1.3965 4.5745,-1.414 l -3.6388,3.5471 7.9027,0.289 -1.6192,4.7562 c -0.5079,3.1757 2.1114,3.1893 -2.7697,4.8339 -6.6077,2.225 -9.7192,-0.4922 -15.1999,-1.4804 -6.594,-1.1855 -8.0901,1.1367 -12.8052,2.8087 -5.2834,1.873 -25.4717,3.6037 -39.3883,11.4712 -2.6876,1.5195 -7.5979,4.3672 -10.4457,5.8302 -7.6878,3.9513 -11.399,3.4964 -12.3051,7.7426 l 0.6034,6.3948 c 2.5001,4.5118 0.1641,0.5175 2.1505,2.4921 2.4064,-2.2402 2.8088,-0.7792 1.586,-3.6231 -2.1368,-4.9612 0.6992,3.6994 -2.6915,-2.1074 4.1427,-1.4884 5.2521,-3.1447 8.6878,-5.4104 0.9805,1.6309 1.4982,-0.5684 0.4942,3.8146 -1.9923,-2.8516 -0.4804,-1.7697 -4.258,-1.1602 l -0.1777,8.0706 c 5.7815,-1.3985 8.6801,-4.6799 12.1664,-7.8127 6.4242,-5.7758 5.0511,-3.8401 12.9929,-4.2093 0.1113,-3.0627 -0.461,-3.42 -1.8536,-5.3066 l 8.5647,0.5194 c -0.6387,4.7989 -3.0391,4.0861 -2.7383,10.1409 9.1664,-0.6522 23.4989,-4.6798 32.136,-7.2053 5.9163,-1.7286 10.3148,-3.1876 15.5455,-5.1427 7.0433,-2.633 10.8716,-2.135 8.6059,-10.1273 l -4.5743,4.6582 c -3.6526,-0.3124 -3.4905,-0.085 -5.934,-2.3887 1.4844,-2.4611 10.0337,-4.9065 13.4713,-6.5237 8.5296,-4.0158 9.0218,-2.5158 13.0435,3.293 3.9201,-0.5996 4.7932,-1.4804 8.3343,-2.502 6.0158,-1.7364 6.3479,0.1589 9.5981,-0.4805 14.4126,-2.8242 9.9515,-7.7719 18.9363,-8.5959 12.1275,-1.1114 6.3186,-4.4808 13.9634,-5.7993 3.2403,-0.5585 3.803,-0.9941 6.4241,-2.3398 4.0256,-2.0684 7.3539,-3.7306 11.3345,-5.9222 10.1391,-5.5782 9.1741,-2.6641 9.9359,-7.2288 13.4946,-2.6035 12.2525,0.7755 27.6515,-9.3031 l 68.2078,-45.4138 c 1.2423,1.494 2.0061,2.7851 4.3831,2.8985 2.5137,0.1216 2.3243,-0.8242 4.9962,-1.8947 -1.7538,5.6135 -3.1271,2.6583 -4.4962,6.9183 2.6387,-0.5097 29.0851,-25.4853 31.4973,-28.0461 7.7191,-8.1897 16.2468,-11.3715 32.6595,-29.0794 6.5706,-7.086 11.4399,-4.6601 18.6981,-11.6254 4.8517,-4.6563 10.2719,-9.9828 14.6548,-15.6627 6.6858,-8.6623 4.2385,-11.1098 15.5066,-15.0005 5.2345,-1.8086 10.5317,-12.563 13.3423,-17.7176 0.1074,-0.2558 0.1347,-0.9804 0.1582,-0.8203 0.021,0.1553 0.1134,-0.6407 0.1464,-0.7911 1.0021,-4.8851 0.034,-1.627 6.6019,-7.9183 3.8947,-3.7287 5.9221,-5.0372 8.8559,-10.6372 5.674,-10.84016 9.3812,-16.22506 21.7937,-14.95366 8.1958,-22.417 16.9989,-27.9855 24.1573,-47.2714 4.4006,-11.8561 4.9826,-5.094 9.3305,-14.4732 5.09,0.9942 1.6289,0.1486 5.4377,3.5763 l 10.1917,-32.6322 c 1.2013,-2.9199 3.9163,-6.4202 5.5999,-9.5044 2.7873,-5.1017 0.8146,-17.6724 1.2305,-25.2744 0.2969,-5.467 2.1135,-5.59 3.9397,-9.5727 2.0625,-4.5002 1.6876,-8.1331 3.0176,-12.1899 1.2071,-3.6759 3.1037,-4.8888 4.9397,-9.1018 1.2462,-2.8557 2.2365,-7.2172 4.0861,-10.0102 6.0023,-9.059 12.3443,-9.2094 9.9184,-18.1668 -2.7852,-10.2777 -7.3109,0.5215 -1.4433,-19.9755 7.674,-26.8057 6.6877,-9.6683 12.1039,-17.6158 0.8496,-9.0297 1.922,-17.4656 3.3087,-26.4622 l 2.7736,-43.7322 c -0.2051,-7.5902 1.9415,-7.2991 2.8125,-13.2427 1.6876,-11.5023 -2.5157,-6.2522 2.6681,-12.7428 3.1935,-3.996 3.508,-7.3243 1.4728,-13.1078 -1.2383,-3.5157 -4.3596,-6.971 -5.3245,-10.0415 l -2.7228,-27.6671 c 1.088,-5.799 4.3127,-5.2502 5.1917,-11.0981 0.6973,-4.6427 0.01,-9.7426 1.8165,-13.5826 3.4981,-7.4338 3.0685,-2.875 2.3653,-12.3734 -0.3848,-5.1859 0.9083,-10.2975 0.6505,-13.903 -0.6192,-8.643 -2.8029,1.7988 -1.0314,-12.9928 -1.8243,-2.2012 -5.131,-3.7071 -5.9787,-7.0295 -1.1582,-4.5492 0.9921,-5.846 -1.0255,-12.0729 l -5.8635,-33.13396 c -0.4102,-7.2835 0.336,-5.1994 -2.5998,-10.442 -3.7109,-6.6251 -3.2638,-15.0591 -5.9044,-20.16263 -2.5763,-6.56084 -2.5783,-3.80118 -3.0919,-12.27206 -0.2989,-4.92416 -1.5705,-8.97704 -3.0588,-12.97909 -5.1233,-13.77206 -3.3614,-14.85994 -9.934,-22.97169 1.5313,-4.70127 3.0763,-3.30482 1.5079,-7.48652 -0.7852,-2.09006 -2.9513,-4.76403 -3.8888,-8.07862 -2.0295,-7.17987 1.1485,-4.15442 -4.26,-19.526 -1.2423,-3.5294 -2.4844,-5.27562 -3.5919,-8.30319 -1.1895,-3.25195 -1.2207,-6.57842 -2.5977,-9.43207 -1.3829,-2.86532 -3.2893,-4.07233 -5.0256,-6.87713 -1.7267,-2.79119 -2.631,-4.99031 -3.7951,-8.14296 l -4.9455,0.0494 c 1.5821,-5.15246 4.5977,-6.1213 2.5195,-11.52191 -1.707,-4.43188 -4.7169,-5.19758 -6.7424,-8.5023 -7.2151,-11.77984 -0.2441,-13.16662 -14.9615,-30.56571 -7.5473,-8.92418 1.7422,-3.68772 -17.9812,-28.59882 -19.5809,-24.72942 -6.7444,-16.83279 -15.7916,-29.69848 -2.3322,-3.31459 -3.4904,-6.32635 -5.9006,-9.27767 -3.0843,-3.78139 -4.7523,-3.01579 -8.2075,-6.98661 -7.4222,-8.52174 -3.461,-3.34581 -7.9436,-7.19759 -3.7306,-3.20512 -2.5021,-5.74243 -5.6604,-9.48282 -2.4904,-2.9474 -5.7033,-3.34198 -9.9419,-5.92018 -2.1036,-8.25033 4.803,-11.59604 -4.7463,-16.26035 -7.0783,-3.4572 -7.3616,-5.16042 -11.6097,-11.10588 -5.5433,-7.75432 -12.1608,-20.9735 -23.0303,-22.19241 l -0.7637,-1.70322 c -1.6622,-3.63293 -0.1349,-2.67004 -2.9338,-4.64085 -2.123,-1.49414 -4.9083,-1.20107 -8.1213,-1.40431 -3.0295,-10.01991 -6.6897,-10.69367 -12.8053,-16.63348 -6.3595,-6.178 -25.622,-20.14718 -33.6712,-24.79397 -5.2464,-3.02928 -4.5549,-4.50197 -8.3519,-6.93575 -3.7052,-2.375161 -6.1136,-3.006011 -9.7172,-5.349951 -6.7894,-4.41214 -11.5083,-7.11733 -17.946,-11.29924 -3.5724,-2.32028 -5.9691,-4.04314 -9.8695,-5.41431 -3.8635,-1.3593 -9.0317,-1.0332 -12.0709,-2.88879 -6.5666,-4.01573 3.4826,-5.21701 -36.6655,-22.92085 -6.4398,-2.83994 -56.1352,-24.4013 -59.9184,-29.00499 -3.5881,-4.36742 -0.9454,-4.80893 -8.4886,-6.61347 -4.5081,-1.07831 -8.0512,-1.56072 -12.4342,-2.76975 -7.1565,-1.9708 -15.6823,-4.24032 -23.4267,-5.70727 -12.4048,-2.34968 -14.1471,0.50395 -24.3507,-6.09401 -6.6076,-4.27365 -15.2856,-4.09983 -23.9384,-5.20533 -17.4343,-2.22853 -22.7704,0.19347 -28.341,-0.61515 -5.8421,-2.92 -21.0848,-3.5999 -28.6789,-2.27363 -13.5201,2.35964 -25.1826,-4.46301 -43.41,-1.39646 -8.0687,1.35556 -6.6897,0.18742 -12.8246,-1.57421 -6.4242,-1.84402 -89.2225,-3.19736 -95.70121,-2.69543 -16.657,1.29092 -28.1379,-3.88309 -43.9784,0.36911 -6.1174,1.6426 -4.7677,4.63098 -9.1625,8.12917 -9.70931,-0.41987 0.6485,-3.02948 -9.72496,-2.91608 -6.22683,0.0695 -4.33806,2.42582 -9.78947,2.95515 -36.66558,3.55680002 -18.98904,4.76584 -29.26293,6.69948 -7.35773,1.38487 -13.91457,0.20313 -25.77059,9.15672 -1.84967,0.40818 -17.30343,4.45907 -18.19216,4.92204 -3.29303,1.7149 -2.5958,3.41611 -8.02371,3.93185 -4.76975,0.45309 -15.07289,-2.84589 -28.99339,3.51571 -6.55886,2.99805 -7.28541,8.36744 -14.39513,9.18592 -7.63115,0.87699 -11.73283,3.12516 -18.73314,4.2931 l -20.10238,3.83808 c -2.02742,0.98828 -3.72671,3.31842 -6.05887,4.73663 -6.94752,4.22078 -12.35397,1.06833 -20.00862,15.48487 -7.82454,0.18753 -11.74657,-1.83021 -18.83278,1.94554 -7.33232,3.90626 -6.3889,6.31264 -7.65458,15.17237 -10.72309,3.46294 -22.27439,6.49242 -27.41906,13.95961 -5.1233,0.2694 -12.47125,4.82424 -16.36009,9.324601 -11.51022,13.31496 -7.12525,8.49052 -16.15105,10.71724 -9.09608,2.24221 -8.90855,10.43786 -13.29933,12.78562 -7.46514,3.99429 -7.07449,-2.10556 -14.53183,8.42808 -2.89661,4.09188 -2.15637,0.42188 -5.57448,5.21309 -9.44376,13.2349 -9.58632,3.75017 -27.39956,19.15689 l -24.70213,20.71971 c -2.76769,2.52936 -2.047,1.46676 -3.65643,4.61921 -2.2462,0.59983 -0.57617,-0.34373 -3.1036,1.66605 l -7.80895,8.46142 c -7.66437,8.41247 -4.5861,2.32239 -10.67815,12.04158 -4.89667,7.81071 -13.56502,10.49264 -23.39547,22.11415 -6.95537,8.22485 -13.69589,14.98113 -20.0282,24.39153 -2.6309,3.9103 -1.74222,2.73843 -5.16225,5.51976 -2.82631,2.29903 -13.03767,14.30717 -11.41845,21.23335 -10.32467,0.25187 -6.28542,5.80496 -15.23501,17.23704 -8.72885,11.15078 -19.62383,29.01284 -27.79019,39.36681 -5.56468,7.05479 -9.18591,10.86568 -13.22514,20.77622 -6.77566,6.47478 -17.79757,24.37209 -20.55746,34.18887 -2.08019,7.39489 -3.76187,14.40093 -5.58813,21.40898 -0.9473,3.63888 -2.32238,6.74641 -3.84196,10.42618 -2.55481,6.18404 -1.43757,5.24048 -2.33604,11.82293 -0.8809,6.45334 -2.46883,2.95697 -3.44543,9.86145 -0.84767,5.99848 -0.43165,5.60591 -2.74817,10.91272 -5.36737,12.29143 -0.11334,17.01234 -2.01765,21.87786 -0.59768,1.5274 -3.7658,4.92 -5.22287,7.7503 -2.74424,5.3283 -1.32234,5.8108 -2.48059,11.3539 -0.99805,4.7678 -9.8246,15.9968 -2.89463,19.0554 -4.64083,3.1525 -4.20133,3.0744 -4.95723,9.7719 -0.89261,7.91046 -2.23839,31.23566 3.83607,36.86096 l 2.77554,1.8828 c -10.76411,14.942 -8.16829,16.5867 -7.32649,33.271 0.33597,6.631 -1.74813,7.6975 -1.78331,14.0414 -0.0546,9.3344 2.27358,18.2743 1.94741,28.2003 -0.33403,10.1979 -2.1876,18.5889 -0.93171,28.5639 1.63095,12.9574 10.95555,30.759 15.29945,44.4862 5.47873,17.3073 9.19961,28.1729 11.90085,47.3983 1.05671,7.5159 5.50808,18.5182 4.72874,24.413 -1.63874,12.3912 -9.63713,9.1567 -0.6602,21.5869 7.93002,10.9809 3.79509,35.1108 12.52788,53.6233 2.99618,6.3517 -1.53717,0.9982 3.15048,9.7407 l 7.16047,15.5902 c 3.23843,5.6449 1.37702,7.2289 3.51381,11.5729 2.73644,5.5608 12.09815,15.1745 17.29952,27.1359 2.81459,6.469 3.02161,3.5859 8.06088,7.26 -0.98441,0.6992 0.70902,-0.152 -2.17587,1.2344 -1.17385,0.5626 -0.65236,0.1435 -2.18562,0.9337 0.1992,11.0826 2.99818,8.43 4.62907,12.3403 1.30868,3.1407 -2.08992,1.4689 1.39067,5.4007 2.00013,2.2579 2.02157,0.086 4.75996,3.9219 -1.73443,1.467 -3.48644,1.0001 -5.82055,0.7053 0.41216,6.9982 17.30539,29.6026 22.98143,32.9427 6.2424,3.6758 1.50008,2.9179 6.67214,7.5061 3.5138,3.1152 4.52168,3.334 7.86749,7.27556 3.50408,4.1273 10.24846,12.2701 12.43999,16.8445 l 4.66619,-4.7287 c 1.18757,7.1526 1.42583,7.1565 5.61936,10.6664 4.89083,4.0921 4.02558,6.9651 6.92998,9.2954 4.75799,3.8127 7.03154,-0.3711 10.44181,5.8734 1.78716,3.2676 2.55871,8.5099 4.61152,11.6546 3.0099,4.6135 12.64699,10.4653 16.90695,15.5241 4.75407,5.6467 10.48283,14.4868 14.94006,18.6336 3.42397,3.1875 2.67588,0.9374 5.30491,3.252 l 1.47269,1.7833 c 1.08795,1.1933 0.99613,1.0487 2.25987,2.1271 3.02747,2.5859 7.81867,10.2367 15.43225,17.11 l 16.44794,15.9614 c 3.19153,3.0667 4.12518,6.5609 7.08233,9.2467 l 21.9618,19.1863 c 3.65838,3.3615 1.22466,1.1523 5.46313,3.2481 5.63108,2.7852 3.2794,5.2678 7.09208,9.1177 2.01571,2.0352 6.68584,4.3263 9.3207,6.9298 5.75412,5.68 8.90268,12.7214 15.58658,16.9285 7.27369,4.5783 16.64712,15.1256 26.99716,22.8251 12.03564,8.9534 15.45573,21.8994 37.87657,27.0928 l 39.23008,9.6294 c 8.07647,2.2677 8.77962,0.3946 15.97719,1.1271 3.40445,2.418 2.76382,3.6212 5.97683,6.0119 2.03131,1.5119 5.60568,2.6935 7.92608,4.0781 6.98273,4.1644 13.4537,2.0178 18.83084,4.9516 2.76377,1.5077 3.66224,4.0177 5.99442,5.9221 3.48644,2.8457 4.35953,1.8241 8.33624,3.6153 6.09988,2.7482 1.73249,6.0609 15.03773,9.8384 16.63931,4.7228 25.58307,3.5235 43.26744,2.7969 14.71345,-0.6035 22.3016,1.8223 26.21781,-5.0236 1.35551,-2.3731 -3.27555,0.4297 1.12699,-1.4024 5.11739,-2.1291 2.79113,4.5822 2.46494,7.1194 6.92995,1.2736 27.28827,1.0489 33.95447,-0.7169 15.3639,-4.0704 32.1674,-2.7715 46.81051,-9.4963 11.6509,-5.35 10.434,0.7773 27.6652,-10.3325 6.5101,-4.1975 8.4925,-3.1018 16.6745,-3.2248 1.4591,-5.6467 7.7249,-11.0864 14.8385,-10.8365 1.7149,2.8087 0.6758,4.7406 2.1661,7.2954 7.137,-9.229 2.7033,-6.5004 3.4435,-15.7312 6.9358,-3.4316 13.5045,-7.6683 19.9598,-11.4027 5.008,-2.9006 6.5041,-0.6426 9.6215,-5.5412 1.9903,-3.1271 4.1173,-7.5415 5.7834,-10.4672 5.5783,-9.7916 10.9477,-9.729 15.3248,-16.1199 2.6447,-3.8615 2.5158,-6.3713 5.9769,-10.2642 7.637,-8.5921 -0.031,-15.3619 10.5961,-37.0892 11.2719,-23.04 -8.4086,-18.1004 -11.8188,-29.9583 -2.1954,-7.6371 7.0882,-15.5885 -2.7188,-23.3231 -5.512,-4.346 -5.4788,-0.258 -12.8425,-0.9261 -5.5684,-2.8867 -8.3518,-10.1115 -11.5785,-14.3345 -5.1213,-0.7793 -7.7503,0.079 -12.0161,-0.3769 l -6.3128,-4.4279 c -0.1016,-0.1588 -0.25,-0.5138 -0.4218,-0.7422 -20.6923,1.9531 -14.3658,-7.1743 -20.2684,-9.8032 -8.7778,-0.6133 -15.2604,-0.8575 -23.0655,-2.9746 -10.143,-2.7522 -11.2367,-6.1878 -19.4891,0.079 -8.6409,-4.3088 -14.5806,-0.959 -23.64351,-2.4163 -10.7152,-1.7264 -12.7563,-0.6444 -22.5946,2.6624 -2.2385,15.8229 -9.893,12.018 -11.4419,5.176 -0.083,-0.3633 -0.2852,-1.5138 -0.3555,-1.8263 l -0.4531,-1.713 c -11.0162,0.1097 -22.26855,2.4573 -24.79987,-8.5159 2.45321,-3.2307 3.60177,-3.4553 7.71897,-5.1643 l 7.2074,-2.373 c 2.2638,-0.8128 1.4513,-0.3244 2.5137,-1.129 -4.2051,-3.1838 -3.8927,-1.4689 -8.93,-0.93 -4.5411,0.4866 -7.12128,-0.4294 -11.77972,0.076 -2.42202,3.3693 -4.10563,8.059 -6.59212,11.6021 -10.64883,1.3751 -10.99257,-4.9259 -14.50447,-11.3169 -2.32817,-4.2403 -10.69957,-7.8108 -16.76044,-9.1487 -1.38479,8.4926 0.75205,9.7583 -7.44166,12.0531 -14.99482,4.2013 -17.74876,-2.8145 -26.75108,-11.6176 -5.06274,-4.9514 -9.16446,-2.7188 -15.00652,-5.5197 l -12.54149,-7.012 c -3.92987,-2.1856 -8.23667,-5.6975 -12.08838,-8.4827 -15.38928,-11.1354 -29.99342,-24.1632 -42.79083,-37.36096 -5.42206,-5.5921 -13.39895,-18.1511 -18.54564,-21.5535 -9.64299,-6.3774 -6.80106,-9.2799 -12.86965,-16.3641 -2.88297,-3.3652 -4.0373,-2.7188 -6.24833,-4.6114 -3.17397,-2.7151 -1.22465,-2.4493 -3.20913,-6.4418 -1.8848,-3.7892 -2.67979,-2.9395 -5.54904,-5.3655 -3.48451,-2.9454 -5.32248,-7.6721 -9.32656,-11.4828 -9.22693,0.2853 -8.69757,0.3809 -15.4674,-7.0274 -4.16034,-4.5531 -7.3968,-8.733 -11.08836,-13.8269 l -11.17039,-13.7194 c -3.96691,-5.9493 -2.10162,-13.2076 -9.98281,-16.3404 -0.47071,6.6584 0.34182,10.1997 0.17972,15.6842 -7.29524,5.1819 -9.57269,-0.7402 -16.8835,-8.4262 -5.4104,-5.6877 -9.27775,-10.3577 -15.21349,-16.1704 -18.95977,-18.5615 -17.85624,-20.5264 -19.22348,-43.6932 -2.28128,2.2734 -0.72267,1.1739 -1.81453,3.0684 -2.67001,4.6349 1.26567,1.8164 -3.3185,3.5608 -3.48643,-2.3401 -1.18948,-0.3557 -2.85167,-5.0784 -1.90238,-5.4026 -6.20138,-9.3305 -6.46116,-15.4206 -27.7824,-50.3711 -56.07844,-140.6247 -42.49197,-237.8847 1.13289,-12.9437 0.57422,-7.6273 8.40657,-10.5785 3.80288,-11.7075 5.25609,-54.32246 6.59987,-60.49456 3.08022,-14.1294 17.67264,-45.14051 17.8484,-49.17976 7.68388,-7.34783 3.30482,-13.24655 23.14742,-29.11443 6.35182,-5.08036 8.21711,-5.85965 13.0611,-12.92632 3.92983,-5.73266 7.03348,-9.68384 10.76212,-15.21537 3.91424,-5.81081 8.25426,-8.67412 12.68607,-13.32091 12.59622,-13.20549 6.68779,-10.60182 19.63554,-19.39135 3.06458,-2.08007 6.38699,-3.24027 8.35777,-4.56269 l 12.22315,-14.3249 24.26859,-20.73512 65.94601,-45.60928 c 4.86545,-2.88495 10.50825,-5.06665 14.62368,-8.01395 l 0.5117,-1.88883 c 0.0761,-0.24795 0.39063,-1.43945 0.50978,-1.74622 1.33992,-3.46102 2.25403,-3.67977 9.24063,-6.89858 5.07835,-2.338 9.40274,-4.28142 14.88339,-6.66434 8.62925,-3.75207 25.47563,-6.75809 31.1693,-11.39118 z M 1102.752,190.49979 c 5.3088,-0.92966 3.4963,-2.06839 8.9282,-3.49818 2.8555,-0.75191 6.9397,-1.10551 10.6136,-1.54883 l 0.7286,-3.48641 c -14.2467,-13.74873 -17.5222,-2.24816 -26.1652,-6.39473 -11.143,-5.34602 -20.0496,-1.05876 -29.8546,-4.01594 -3.9064,-1.17781 -10.7368,-8.07065 -26.5246,-2.64657 -9.3441,3.21105 -20.7391,-0.45118 -32.3723,-0.33003 l 3.0215,10.60393 c 3.9319,-0.44141 18.5067,-3.24621 21.749,-1.55488 -2.547,4.49241 -8.4632,2.76774 -16.2781,2.95727 -7.0705,0.17384 -4.6564,0.3106 -5.2951,1.0763 -5.2521,9.6213 16.5554,6.62123 22.6239,5.6389 22.245,-3.59991 19.665,-6.92417 24.0616,1.99407 5.8185,0.53326 7.9866,0.0171 13.1411,-0.64455 6.4222,-0.82019 14.7839,3.91029 26.0402,2.68192 6.7151,-0.73257 1.5391,-3.08033 5.5822,-0.83408 z M 687.86019,963.28694 c -2.57044,-1.4082 -1.27348,-3.8869 -4.19353,-7.428 -9.64493,-11.6899 -3.64666,0.7422 -8.79921,-18.1999 -1.37308,-5.0472 -3.29895,-5.7502 -3.76379,-10.4888 l 6.6194,-4.2893 c -1.04885,-5.6662 -1.1817,0.5315 -4.28336,-11.8462 -1.15434,-4.6075 -4.12321,-6.4045 -9.52973,-6.2286 -5.66039,7.9593 -3.74229,12.8677 -10.26013,14.8989 -0.89654,-1.9414 -2.13486,-4.8965 -2.95914,-7.9729 -1.71491,-6.3987 -0.0761,-1.4805 2.14269,-6.9984 -17.28393,-2.252 -12.49858,5.846 -6.51003,13.7331 4.49233,5.9182 8.19565,12.1861 12.41455,16.8287 4.57636,5.0373 23.72948,27.8742 29.1242,27.9914 z m 629.54701,204.34426 c 0.1367,-5.3244 0.2032,-2.3928 1.6133,-4.096 l 2.9377,-2.4043 c -4.1447,-2.3967 -13.2194,8.6428 -15.989,10.8832 -4.1408,3.3459 -14.2348,9.6938 -21.4325,6.4475 2.0801,-2.0919 9.9243,-4.0333 12.9869,-5.1623 -1.6564,-1.1953 0.123,-0.5722 -2.6193,-1.0606 -1.6132,-0.287 -2.2286,-0.2167 -3.8908,-0.063 -27.3428,2.5547 -15.567,12.7016 -37.0659,22.5146 5.842,3.6152 19.411,-5.1994 23.376,-7.9788 7.4847,-5.2425 18.3346,-4.5119 28.0987,-2.0352 -4.4259,4.1796 -4.5235,1.3457 -8.6097,3.5333 7.7191,6.5432 14.0182,2.754 18.9382,-3.2482 -2.5117,-1.6349 -4.3536,0.9688 -9.4926,-3.5296 1.842,-3.7716 41.0877,-22.532 45.9746,-26.4268 -16.7448,-1.127 -11.2719,4.0276 -18.6004,5.7269 -9.9008,2.293 -9.846,10.4339 -16.2272,6.9006 z m -40.5095,-77.802 -1.078,5.7033 c 3.6641,0.8379 2.6602,0.1554 3.7911,0.1992 3.7091,0.1402 1.668,-0.6367 3.3419,0.4101 -2.5431,4.893 -1.3848,-3.3027 -6.9729,3.553 -5.178,6.3498 -2.5237,1.7384 -7.6137,5.5002 -1.3477,0.996 -2.1231,1.9902 -2.4238,4.092 l 0.2831,3.7442 c 0.9336,4.0705 1.5509,5.1702 7.2034,7.9282 2.5001,-2.9025 3.0823,-3.4593 0.7736,-6.4027 0.2694,-0.1471 0.7265,-0.5801 0.8535,-0.3438 0,0 2.545,-0.2988 3.7248,-2.9043 l -5.2483,-0.7267 c 10.3734,-2.9825 11.0062,-0.7598 21.7489,-6.6506 6.4025,-3.5119 12.0376,-7.8969 18.0477,-11.266 -4.8773,-2.465 -3.0432,1.875 -5.5276,-3.0198 1.2402,-2.457 0.832,-1.1718 2.2677,-2.5235 0.7929,-0.7441 0.2831,0.5742 2.2149,-1.8633 l -11.7037,5.3361 c -1.6817,-3.2227 -4.8048,-7.1351 1.7696,-7.2698 6.0628,-0.1233 7.7093,2.2013 9.2367,-5.0978 l -20.032,6.6076 c -4.4435,1.9414 -0.4414,-0.998 -4.0412,2.5841 -7.9241,7.885 -5.3029,5.2307 -10.6138,2.4103 z"
            fill="url(#a)"
            id="path3"
            style="fill:url(#a);stroke-width:0.19532"/>
    <path
            d="M -2.798636,528.59564 H 134.76163 c 16.95378,0 130.87638,-2.37906 136.4645,1.4316 3.04308,3.2716 1.90438,10.2992 1.89852,16.2897 -0.008,10.098 1.70513,46.8203 -1.8868,49.879 -5.70925,2.879 -245.26575,1.1992 -274.036486,1.1992 v 207.3131 l 69.129726,-0.053 v -137.9723 l 127.10283,-0.1759 79.81183,138.1482 79.55398,0.073 c -4.44938,-12.3892 -76.1378,-129.3997 -78.40158,-138.1461 25.1846,-0.7638 41.00168,-12.022 52.10169,-24.9249 15.21742,-17.6922 16.00461,-34.0266 16.00461,-61.7604 0,-44.8064 8.4007,-91.75936 -40.27901,-114.40884 -19.2039,-8.93594 -47.41596,-6.31677 -71.06537,-6.31677 H -2.80065 v 69.42661 z m 842.258706,-0.4143 238.28503,0.424 c -2.8888,4.6077 -28.0871,25.1123 -34.2982,30.6301 -5.3714,4.7696 -11.0942,9.8208 -16.8718,14.5045 l -86.16951,74.175 c -27.94836,22.6804 -57.9086,51.205 -85.55822,73.6551 -3.13488,2.5451 -5.59591,5.0413 -8.78156,7.4652 -3.50601,2.6701 -6.24048,3.7874 -6.60377,9.9965 -1.17195,20.1201 0.086,44.7011 0.0761,65.3348 l 345.03936,0.098 0.012,-68.831 -238.36511,-0.2227 c 2.4278,-4.1193 27.8098,-24.8368 33.3685,-29.8938 5.5353,-5.0373 10.9731,-9.3869 16.9246,-14.479 5.72081,-4.8928 11.49851,-10.3072 17.47141,-15.0338 l 25.6962,-21.956 c 29.8255,-26.2218 68.2783,-57.2288 95.379,-82.2769 l 34.306,-29.5909 c 7.8187,-6.3752 14.9655,-10.6254 15.3054,-17.43236 0.9258,-18.7058 0.7089,-46.3964 -0.2344,-65.17842 -27.6242,-1.22665 -57.7719,-0.14023 -85.6734,-0.14023 -38.6266,0 -251.81892,-1.6837 -259.26841,0.79898 l -0.0392,67.95183 z M 2075.7719,804.46414 V 459.28618 l -68.5655,0.0173 -0.5621,238.03506 c -5.8346,-3.1038 -111.2117,-128.0657 -119.8428,-137.5016 -23.1575,-25.3194 -51.6486,-62.21146 -74.1361,-86.16949 -2.5821,-2.75012 -4.918,-5.44559 -7.5977,-8.65867 -2.9846,-3.5821 -2.9846,-5.74632 -9.7467,-5.79906 -20.4363,-0.15205 -44.1697,-0.85344 -64.3052,0.19151 l -0.5568,344.58031 69.3758,0.5018 0.015,-238.2966 c 4.6387,3.0156 157.7152,182.2358 180.1221,208.0846 l 26.4758,30.0088 69.3212,0.1955 z m -794.8897,-0.017 345.0394,0.2949 -0.044,-69.2859 -125.6692,0.05 -149.6857,-0.1048 -0.4239,-68.6571 148.8928,-0.1114 127.0579,-0.461 -0.1035,-68.747 -133.3765,0.1369 -211.6961,-0.1757 0.01,207.0573 z m -673.42959,0.076 12.31106,-0.2148 c 0.2305,-65.2078 0.37893,-53.6468 -0.0311,-126.9387 -0.0839,-15.2057 3.65834,-16.4559 17.42454,-34.8492 8.18779,-10.9398 130.17715,-178.45444 131.71233,-183.06986 l -85.24172,-0.0173 -98.27544,135.75766 c -3.25994,-3.4593 -18.88751,-24.5754 -20.39343,-28.5521 -5.13304,-4.5098 -15.16662,-20.4364 -19.83477,-26.6632 -6.81277,-9.0863 -12.92046,-17.30926 -19.19218,-26.29976 -4.91425,-7.0414 -36.81594,-49.76386 -37.76129,-53.86749 l -86.05232,-0.38084 c 1.40627,4.51957 92.25763,129.83519 102.65062,143.65999 9.05311,12.0434 17.30538,24.1027 25.92098,35.8043 4.66427,6.3343 8.21711,11.4926 12.68998,17.6375 7.59014,10.43 7.34988,7.6898 7.30889,24.0906 -0.0997,39.904 -1.75983,84.0855 0.0255,123.4895 l 56.73666,0.4121 z m 673.50589,-345.13495 -0.2169,69.22735 200.3539,0.098 144.9161,-0.4159 -0.5118,-69.37401 -344.5413,0.46096 z"
            fill="#121210"
            id="path4"
            style="stroke-width:0.19532;fill:#ffffff"/>
</svg>
