<?xml version="1.0" encoding="UTF-8" standalone="no"?>
<!-- Uploaded to: SVG Repo, www.svgrepo.com, Generator: SVG Repo Mixer Tools -->

<svg
        height="512"
        width="512"
        version="1.1"
        id="Capa_1"
        viewBox="0 0 20.48 20.48"
        xml:space="preserve"
        xmlns="http://www.w3.org/2000/svg"
><defs
   id="defs3" />
    <g
            id="g3"
            transform="matrix(0.58013304,0,0,0.58013304,0.60525322,0.8774075)"
            style="fill:#ffffff">
	<g
            id="question_x5F_mark"
            style="fill:#ffffff">
		<g
                id="g2"
                style="fill:#ffffff">
			<path
                    style="fill:#ffffff"
                    d="m 17.6,30 c 0,1.102 -0.895,2 -2,2 -1.105,0 -2,-0.898 -2,-2 0,-1.109 0.895,-2 2,-2 1.105,0 2,0.891 2,2 z"
                    id="path1"/>
            <path
                    style="fill:#ffffff"
                    d="m 15.676,25.977 c -1.336,0 -2.59,-0.523 -3.535,-1.469 -0.945,-1.105 -1.465,-2.359 -1.465,-3.695 0,-1.336 0.52,-2.59 1.465,-3.371 l 6.688,-6.688 C 19.584,9.996 20,8.992 20,7.926 20,6.856 19.584,5.852 18.828,5.098 17.269,3.539 14.732,3.536 13.174,5.098 12.416,5.852 12,6.855 12,7.926 H 8 C 8,5.789 8.834,3.778 10.348,2.266 13.368,-0.757 18.633,-0.754 21.657,2.27 23.168,3.777 24,5.785 24,7.926 c 0,2.137 -0.832,4.145 -2.344,5.656 l -6.688,6.523 c -0.389,0.391 -0.389,1.023 0,1.414 0.391,0.391 1.023,0.391 1.414,0 0.254,-0.258 0.293,-0.555 0.293,-0.711 h 4 c 0,1.336 -0.52,2.594 -1.465,3.699 -0.944,0.946 -2.198,1.47 -3.534,1.47 z"
                    id="path2"/>
		</g>
	</g>
</g>
</svg>
