<?xml version="1.0" encoding="UTF-8" standalone="no"?>
<svg
   fill="none"
   height="331.33295"
   viewBox="0 0 352.37689 331.33295"
   width="352.37689"
   version="1.1"
   id="svg7"
   sodipodi:docname="zsh.svg"
   inkscape:version="1.3.2 (091e20ef0f, 2023-11-25)"
   xmlns:inkscape="http://www.inkscape.org/namespaces/inkscape"
   xmlns:sodipodi="http://sodipodi.sourceforge.net/DTD/sodipodi-0.dtd"
   xmlns="http://www.w3.org/2000/svg"
   xmlns:svg="http://www.w3.org/2000/svg">
  <defs
     id="defs7" />
  <sodipodi:namedview
     id="namedview7"
     pagecolor="#ffffff"
     bordercolor="#000000"
     borderopacity="0.25"
     inkscape:showpageshadow="2"
     inkscape:pageopacity="0.0"
     inkscape:pagecheckerboard="true"
     inkscape:deskcolor="#d1d1d1"
     inkscape:zoom="1.1678922"
     inkscape:cx="181.09549"
     inkscape:cy="169.5362"
     inkscape:window-width="1080"
     inkscape:window-height="1892"
     inkscape:window-x="0"
     inkscape:window-y="0"
     inkscape:window-maximized="1"
     inkscape:current-layer="svg7" />
  <g
     stroke="#ffffff"
     stroke-linecap="round"
     id="g4"
     transform="translate(-227.08205,-238.08205)">
    <path
       d="m 320.736,337.538 -58.198,69.311"
       stroke-linejoin="round"
       stroke-width="6.26753"
       id="path1" />
    <circle
       cx="277.30099"
       cy="353.07999"
       r="12.0128"
       stroke-linejoin="round"
       stroke-width="9.78818"
       id="circle1" />
    <circle
       cx="305.776"
       cy="391.34299"
       r="12.0128"
       stroke-linejoin="round"
       stroke-width="9.78818"
       id="circle2" />
    <path
       d="M 386.371,405.116 H 344.812"
       stroke-linejoin="round"
       stroke-width="6.26753"
       id="path2" />
    <path
       d="M 401.122,560.338 H 280.111 C 255.749,560.338 236,540.589 236,516.227 V 291.111 C 236,266.749 255.749,247 280.111,247 h 246.32 c 24.361,0 44.11,19.749 44.11,44.111 v 269.227"
       stroke-width="17.8359"
       id="path3" />
    <path
       d="m 240.818,308.383 322.381,-10e-4"
       stroke-width="17.8359"
       id="path4" />
  </g>
  <path
     d="m 243.18895,322.09795 c 0,-2.436 -0.967,-4.772 -2.689,-6.494 -1.723,-1.722 -4.059,-2.69 -6.494,-2.69 -0.071,0 -0.139,0.009 -0.209,0.011 h -20.643 c -0.173,0 -0.344,-0.043 -0.498,-0.124 -0.153,-0.082 -0.284,-0.2 -0.381,-0.343 -0.098,-0.144 -0.158,-0.31 -0.177,-0.482 -0.018,-0.173 0.006,-0.348 0.071,-0.509 l 30.191,-75.273 c 0.496,-1.237 0.681,-2.577 0.539,-3.902 -0.141,-1.326 -0.606,-2.596 -1.353,-3.7 -0.747,-1.104 -1.753,-2.008 -2.93,-2.634 -1.177,-0.625 -2.49,-0.952 -3.823,-0.952 h -31.82 c -0.18,-0.01 -0.358,-0.027 -0.541,-0.027 -1.175,0 -2.339,0.232 -3.426,0.681 -1.086,0.45 -2.072,1.11 -2.904,1.941 -0.831,0.831 -1.49,1.818 -1.94,2.904 -0.45,1.086 -0.681,2.25 -0.681,3.425 v 0.002 0.002 c -0.001,1.175 0.23,2.339 0.68,3.426 0.449,1.086 1.109,2.073 1.94,2.904 0.831,0.831 1.818,1.49 2.905,1.939 1.086,0.449 2.25,0.68 3.426,0.679 0.141,0 0.277,-0.015 0.416,-0.021 h 16.489 c 0.181,0 0.36,0.044 0.52,0.129 0.159,0.085 0.296,0.208 0.398,0.358 0.101,0.15 0.164,0.322 0.184,0.502 0.019,0.18 -0.006,0.362 -0.073,0.53 l -26.18,65.382 c -0.466,1.164 -0.705,2.406 -0.705,3.659 v 8.017 c 0,2.611 1.037,5.115 2.883,6.961 1.846,1.846 4.349,2.883 6.96,2.883 h 30.687 c 1.205,0 2.399,-0.238 3.513,-0.699 1.113,-0.461 2.125,-1.137 2.977,-1.99 0.853,-0.852 1.529,-1.864 1.99,-2.977 0.461,-1.114 0.699,-2.307 0.698,-3.513 v -0.002 z"
     fill="#ffffff"
     id="path5" />
  <path
     d="m 296.33595,247.76895 c 0.064,-3.494 -0.264,-6.984 -0.978,-10.406 -0.559,-2.882 -1.677,-5.18 -3.354,-6.891 -1.583,-1.802 -3.819,-3.063 -6.706,-3.784 -2.795,-0.811 -6.381,-1.216 -10.758,-1.216 -4.192,0 -8.992,0.405 -11.88,1.216 -2.615,0.618 -4.994,1.979 -6.846,3.919 -1.676,1.892 -2.887,4.459 -3.632,7.702 -0.746,3.153 -1.118,7.162 -1.118,12.027 0,4.685 0.046,8.468 0.139,11.351 0.122,2.358 0.402,4.706 0.839,7.027 0.351,1.535 0.965,2.998 1.816,4.324 0.802,1.145 1.74,2.188 2.794,3.108 1.463,1.285 3.055,2.417 4.751,3.379 1.863,1.081 3.772,2.117 5.728,3.108 1.956,0.991 3.819,2.027 5.589,3.107 1.668,0.938 3.216,2.072 4.611,3.379 0.552,0.597 1.065,1.229 1.537,1.892 0.339,0.4 0.603,0.858 0.779,1.351 0.161,0.442 0.296,0.892 0.404,1.349 0.153,0.711 0.225,1.437 0.214,2.165 0.093,1.081 0.14,2.567 0.14,4.459 0.039,2.574 -0.101,5.148 -0.419,7.703 -0.091,1.456 -0.471,2.88 -1.118,4.188 -0.492,0.849 -1.292,1.478 -2.236,1.758 -0.931,0.269 -4.151,0.405 -5.549,0.405 -1.131,0.021 -2.26,-0.115 -3.353,-0.405 -0.88,-0.398 -1.612,-1.059 -2.096,-1.892 -0.552,-1.296 -0.928,-2.659 -1.117,-4.054 -0.21,-2.242 -0.303,-4.493 -0.28,-6.745 0,-0.251 -0.013,-0.501 -0.039,-0.751 h -0.056 c -0.257,-1.793 -1.155,-3.433 -2.529,-4.62 -1.375,-1.186 -3.133,-1.84 -4.952,-1.84 -1.819,0 -3.577,0.654 -4.951,1.84 -1.374,1.187 -2.272,2.827 -2.529,4.62 h -0.044 c -0.03,0.274 -0.043,0.55 -0.041,0.827 0.001,0.064 0.002,0.126 0.002,0.19 0,0.019 -0.003,0.037 -0.003,0.056 0,0.031 0.005,0.062 0.005,0.093 0.023,1.774 0.048,3.368 0.048,4.167 0,5.316 0.373,9.64 1.118,12.973 0.838,3.243 2.142,5.81 3.912,7.703 1.833,1.837 4.163,3.104 6.706,3.648 3.247,0.783 6.581,1.146 9.92,1.081 4.471,0 10.253,-0.405 13.233,-1.216 2.82,-0.706 5.326,-2.322 7.126,-4.595 1.863,-2.252 3.167,-5.36 3.912,-9.324 0.838,-4.053 1.258,-9.233 1.258,-15.54 0,-4.594 -0.14,-8.288 -0.42,-11.08 -0.083,-2.346 -0.507,-4.667 -1.257,-6.892 -0.542,-1.624 -1.45,-3.104 -2.655,-4.325 -1.217,-1.236 -2.577,-2.325 -4.052,-3.243 -1.349,-0.848 -2.749,-1.615 -4.191,-2.297 -1.584,-0.901 -3.26,-1.757 -5.03,-2.568 -1.77,-0.9 -3.446,-1.801 -5.03,-2.702 -1.405,-0.866 -2.758,-1.814 -4.052,-2.838 -0.604,-0.492 -1.165,-1.035 -1.676,-1.621 -0.405,-0.618 -0.69,-1.305 -0.839,-2.027 -0.216,-1.025 -0.356,-2.064 -0.419,-3.108 v -5.136 c -0.026,-1.94 0.068,-3.881 0.279,-5.81 0.108,-1.178 0.44,-2.325 0.979,-3.379 0.474,-0.751 1.227,-1.285 2.095,-1.486 0.839,-0.27 3.171,-0.405 4.475,-0.405 2.98,0 4.843,0.855 5.588,2.567 0.59,1.082 0.922,2.284 0.973,3.514 0.031,0.983 0.046,2.263 0.05,3.604 h 0.052 c 0,0.018 -0.002,0.035 -0.002,0.054 0,1.997 0.797,3.913 2.216,5.326 1.419,1.412 3.343,2.206 5.35,2.206 2.006,0 3.931,-0.794 5.35,-2.206 1.418,-1.413 2.216,-3.329 2.216,-5.326 0,-0.018 -0.003,-0.036 -0.003,-0.054 h 0.003 c 0.001,-1.502 0.003,-2.847 0.003,-3.604 z"
     fill="#ffffff"
     id="path6" />
  <path
     d="m 352.27495,233.85295 c 0.006,-1.228 -0.243,-2.443 -0.733,-3.569 -0.49,-1.125 -1.209,-2.136 -2.112,-2.968 -0.902,-0.832 -1.968,-1.467 -3.13,-1.863 -1.161,-0.397 -2.393,-0.547 -3.616,-0.441 -1.223,0.106 -2.41,0.466 -3.486,1.057 -1.076,0.591 -2.017,1.399 -2.763,2.374 -0.745,0.975 -1.28,2.095 -1.568,3.288 -0.289,1.193 -0.326,2.433 -0.108,3.641 v 31.462 c 0,0.522 -0.207,1.023 -0.577,1.392 -0.369,0.369 -0.87,0.576 -1.392,0.576 h -10.916 c -0.522,0 -1.023,-0.207 -1.392,-0.576 -0.369,-0.369 -0.577,-0.87 -0.577,-1.392 v -32.783 c 0,-0.034 -0.004,-0.066 -0.005,-0.1 0.001,-0.033 0.005,-0.065 0.005,-0.099 0,-2.341 -0.93,-4.586 -2.585,-6.242 -1.656,-1.655 -3.901,-2.586 -6.243,-2.586 -2.341,0 -4.586,0.931 -6.242,2.586 -1.656,1.656 -2.586,3.901 -2.586,6.242 0,0.034 0.005,0.066 0.005,0.099 0.001,0.034 -0.005,0.066 -0.005,0.1 v 88.421 l 0.001,0.016 -0.001,0.017 c 0,2.341 0.93,4.586 2.586,6.242 1.656,1.655 3.901,2.586 6.242,2.586 2.342,0 4.587,-0.931 6.243,-2.586 1.655,-1.656 2.585,-3.901 2.585,-6.242 v -0.017 -0.016 -35.025 c 0,-0.523 0.208,-1.023 0.577,-1.393 0.369,-0.369 0.87,-0.576 1.392,-0.576 h 10.916 c 0.522,0 1.023,0.207 1.392,0.576 0.37,0.37 0.577,0.87 0.577,1.393 v 33.505 c -0.229,1.269 -0.176,2.573 0.155,3.819 0.331,1.246 0.933,2.404 1.762,3.392 0.83,0.988 1.866,1.781 3.036,2.323 1.17,0.542 2.446,0.82 3.735,0.813 0.012,0 0.023,-10e-4 0.035,-10e-4 0.012,0 0.023,10e-4 0.035,10e-4 1.15,0 2.289,-0.226 3.352,-0.666 1.062,-0.44 2.028,-1.085 2.841,-1.899 0.813,-0.813 1.458,-1.778 1.899,-2.841 0.44,-1.063 0.666,-2.202 0.666,-3.352 v -88.56 c 0,-0.022 -0.003,-0.043 -0.003,-0.064 0,-0.022 0.003,-0.043 0.003,-0.064 z"
     fill="#ffffff"
     id="path7" />
</svg>
