<?xml version="1.0" encoding="UTF-8" standalone="no"?>
<svg
   width="512"
   height="512"
   viewBox="35.188 31.512 71.979009 71.970626"
   version="1.1"
   id="svg2"
   sodipodi:docname="nvidia-icon.svg"
   inkscape:version="1.3.2 (091e20ef0f, 2023-11-25)"
   xmlns:inkscape="http://www.inkscape.org/namespaces/inkscape"
   xmlns:sodipodi="http://sodipodi.sourceforge.net/DTD/sodipodi-0.dtd"
   xmlns="http://www.w3.org/2000/svg"
   xmlns:svg="http://www.w3.org/2000/svg"
   xmlns:rdf="http://www.w3.org/1999/02/22-rdf-syntax-ns#"
   xmlns:cc="http://creativecommons.org/ns#"
   xmlns:dc="http://purl.org/dc/elements/1.1/">
  <defs
     id="defs2" />
  <sodipodi:namedview
     id="namedview2"
     pagecolor="#ffffff"
     bordercolor="#000000"
     borderopacity="0.25"
     inkscape:showpageshadow="2"
     inkscape:pageopacity="0.0"
     inkscape:pagecheckerboard="true"
     inkscape:deskcolor="#d1d1d1"
     inkscape:zoom="0.4888"
     inkscape:cx="240.38462"
     inkscape:cy="838.78887"
     inkscape:window-width="1080"
     inkscape:window-height="1892"
     inkscape:window-x="0"
     inkscape:window-y="0"
     inkscape:window-maximized="1"
     inkscape:current-layer="svg2" />
  <title
     id="title1">generated by pstoedit version:3.44 from NVBadge_2D.eps</title>
  <path
     d="m 44.846924,65.040042 c 0,0 6.028232,-8.894207 18.064605,-9.81436 v -3.226804 c -13.331811,1.070694 -24.876635,12.362103 -24.876635,12.362103 0,0 6.538799,18.902251 24.876635,20.633256 V 81.564378 C 49.454354,79.871411 44.846924,65.040042 44.846924,65.040042 Z m 18.064605,9.703194 v 3.141358 C 52.740897,76.07109 49.917775,65.498918 49.917775,65.498918 c 0,0 4.883339,-5.409716 12.993754,-6.287001 v 3.446726 c -0.0062,0 -0.01045,-0.0018 -0.01554,-0.0018 -4.256782,-0.510834 -7.582168,3.465758 -7.582168,3.465758 0,0 1.863866,6.694164 7.597705,8.620709 m 0,-28.695977 v 5.951618 c 0.391363,-0.03002 0.782727,-0.05541 1.176234,-0.06887 15.156833,-0.510834 25.032535,12.430946 25.032535,12.430946 0,0 -11.342578,13.79229 -23.159562,13.79229 -1.083013,0 -2.096916,-0.100449 -3.049207,-0.269214 v 3.680322 a 20.101248,20.101248 0 0 0 2.539711,0.163933 c 10.996487,0 18.948855,-5.615973 26.649154,-12.262719 1.276686,1.022467 6.503439,3.509947 7.577881,4.598582 -7.321526,6.130027 -24.384817,11.071224 -34.058543,11.071224 -0.932468,0 -1.82797,-0.0565 -2.708203,-0.141435 v 5.171572 H 104.70841 V 46.047286 Z m 0,13.164385 v -3.98569 c 0.387345,-0.02702 0.777638,-0.04794 1.176234,-0.0605 10.899248,-0.342351 18.049871,9.366202 18.049871,9.366202 0,0 -7.723338,10.726207 -16.004387,10.726207 -1.191771,0 -2.260319,-0.191537 -3.221987,-0.514855 V 62.65847 c 4.243121,0.512708 5.097103,2.387022 7.648065,6.639523 l 5.673835,-4.783959 c 0,0 -4.141597,-5.431679 -11.123191,-5.431679 -0.759155,-2.64e-4 -1.485361,0.05304 -2.19844,0.12938"
     fill="#77b900"
     id="path2"
     style="stroke-width:0.267873" />
  <metadata
     id="metadata2">
    <rdf:RDF>
      <cc:Work
         rdf:about="">
        <dc:title>generated by pstoedit version:3.44 from NVBadge_2D.eps</dc:title>
      </cc:Work>
    </rdf:RDF>
  </metadata>
</svg>
