<?xml version="1.0" encoding="UTF-8" standalone="no"?>
<svg
   clip-rule="evenodd"
   fill-rule="evenodd"
   height="512"
   image-rendering="optimizeQuality"
   shape-rendering="geometricPrecision"
   text-rendering="geometricPrecision"
   viewBox="-2.2737368e-13 -13.05 2179.4509 2185.0522"
   width="512"
   version="1.1"
   id="svg4"
   sodipodi:docname="ryzen-brand.svg"
   inkscape:version="1.3.2 (091e20ef0f, 2023-11-25)"
   xmlns:inkscape="http://www.inkscape.org/namespaces/inkscape"
   xmlns:sodipodi="http://sodipodi.sourceforge.net/DTD/sodipodi-0.dtd"
   xmlns="http://www.w3.org/2000/svg"
   xmlns:svg="http://www.w3.org/2000/svg">
  <defs
     id="defs4" />
  <sodipodi:namedview
     id="namedview4"
     pagecolor="#ffffff"
     bordercolor="#000000"
     borderopacity="0.25"
     inkscape:showpageshadow="2"
     inkscape:pageopacity="0.0"
     inkscape:pagecheckerboard="true"
     inkscape:deskcolor="#d1d1d1"
     inkscape:zoom="0.9776"
     inkscape:cx="215.32324"
     inkscape:cy="172.87234"
     inkscape:window-width="1080"
     inkscape:window-height="1892"
     inkscape:window-x="0"
     inkscape:window-y="0"
     inkscape:window-maximized="1"
     inkscape:current-layer="svg4" />
  <linearGradient
     id="a"
     gradientUnits="userSpaceOnUse"
     x1="3341.1699"
     x2="7132.3301"
     y1="5621.3301"
     y2="1929.9399"
     gradientTransform="matrix(0.19112684,0,0,0.19112684,73.748721,462.21516)">
    <stop
       offset="0"
       stop-color="#9d141c"
       id="stop1" />
    <stop
       offset=".6"
       stop-color="#c04215"
       id="stop2" />
    <stop
       offset="1"
       stop-color="#e4700d"
       id="stop3" />
  </linearGradient>
  <g
     id="g4">
    <path
       d="m 916.09447,704.12824 c 16.49422,-6.7046 23.09001,-14.70524 42.93278,-15.21932 7.18256,-7.84385 30.54782,-10.70121 33.81417,-19.10125 2.40823,-6.19449 1.04355,-6.83093 7.44438,-10.46986 7.6088,-4.32529 20.0951,-5.81032 29.7508,-5.36882 15.661,0.71669 27.5051,-4.02707 30.6778,3.32747 -4.9044,2.17324 -8.1764,1.28254 -12.0678,4.81647 -4.3596,3.96019 -1.4124,1.74881 -6.764,3.91993 -4.4302,1.79663 -1.0206,0.9556 -4.266,2.81154 -1.4926,-4.11501 -6.0338,-8.66185 -11.7848,-8.66569 -0.9346,0 -17.6162,3.02752 -18.178,3.20895 3.0026,16.09293 15.9953,-6.072 24.4355,18.35013 0.193,-0.23122 0.3593,-0.96327 0.43,-0.79509 0.071,0.16818 0.3268,-0.60585 0.4224,-0.77985 2.305,-4.14931 0.4129,-2.43875 2.3986,-3.68303 2.5573,3.56463 4.547,11.07968 7.5343,-0.26181 5.4336,5.32671 15.984,-0.0693 27.0942,-3.3562 6.8327,-2.024 21.1882,-8.11904 28.6288,-6.71042 -0.9785,5.86952 -8.8415,7.11762 -9.8774,12.90305 5.0878,-0.5734 12.0658,-6.2174 18.4093,-8.24524 16.9129,-5.40509 35.6662,-3.92378 52.2178,-3.65244 9.4837,0.15481 18.6903,-0.80078 28.176,0.15667 4.3901,0.39754 8.5166,1.28439 12.6736,1.84814 8.293,1.12587 29.3953,1.03027 34.1831,9.53545 0.1567,0.27705 0.5503,1.21926 0.6671,1.47933 l 0.6114,1.53655 c 7.001,-1.89025 7.389,-1.11424 14.3804,0.45104 30.2822,6.77358 4.7305,8.85492 20.8061,15.21375 23.0843,9.13395 42.3442,23.8813 46.442,25.72572 7.4233,3.33899 6.4697,-7.48457 25.0395,5.55606 l 33.2847,20.80611 c 16.4502,9.34981 28.3919,33.21203 36.0369,35.82479 -4.4915,-6.77359 -22.6447,-23.7686 -22.1955,-33.56573 14.4874,-4.67305 26.4787,18.6502 36.9219,32.76866 l 28.3173,44.88048 c 4.1055,4.90612 1.4832,-0.71298 3.4193,4.92148 2.2687,6.60911 5.9785,10.91137 11.416,16.23807 2.6165,2.56309 7.2571,4.55465 8.8072,9.16082 6.0988,18.12064 12.8532,11.35672 18.7897,35.41771 2.6662,10.80623 7.6125,17.95061 9.3632,28.6077 17.5111,58.3892 36.9792,133.14684 40.0296,205.66604 0.3365,-0.323 0.8104,-0.7493 1.7431,-1.3742 0.6002,6.4123 -0.2579,10.2921 1.1448,16.8611 1.4698,6.8845 1.4373,9.2085 0.3901,16.4637 -2.351,16.3165 3.6389,4.3558 -4.9504,31.5933 l -0.5159,0.6059 c -2.9281,24.0857 -8.4785,47.237 -17.4365,68.6736 -14.9519,46.3714 -19.2466,66.6232 -44.9684,106.624 -7.8782,12.2532 -1.3035,5.8199 -14.3576,22.7594 l -17.012,21.1215 c -8.0752,11.2058 -3.2856,8.3809 -16.6663,21.4827 -5.7817,5.6611 -13.1267,12.3048 -17.3868,21.0602 l -17.2587,17.4366 c -3.5933,3.0045 -4.6177,2.4483 -4.7248,7.859 -5.6096,-1.9265 -1.5329,-1.9188 -6.5421,3.0734 -6.6188,6.592 -18.9942,11.6492 -24.3708,20.1734 -5.4661,-0.7741 -5.1967,-2.196 -10.5081,3.1938 -0.214,0.2178 -0.7817,0.8869 -1.0016,1.1047 l -1.1103,1.0416 c -0.3058,0.2657 -1.8749,1.4086 -2.458,1.8903 -1.9302,1.5959 -2.9127,2.8209 -4.4149,4.4208 6.1772,-0.4492 6.0281,-2.9034 11.2669,0.3248 l 4.2315,2.1273 c -4.4474,3.8186 -3.7995,6.4945 -10.8426,6.6016 2.6241,-4.0309 2.5707,-1.4985 4.7075,-5.9461 -5.3994,0.7053 -8.3752,3.4365 -12.9393,5.6517 -2.4579,1.1945 0.8315,0.2428 -1.9801,0.5619 -3.1096,0.3536 1.8292,-0.3382 -2.3183,-0.1015 -4.0041,0.2293 -3.9984,1.1142 -6.5939,4.4991 l -2.9968,3.3658 c -6.0378,4.9711 -12.4023,8.461 -18.7095,12.0618 -6.5098,3.7156 -9.778,4.4935 -15.9189,9.4036 -0.088,4.5717 1.6455,4.2945 -0.6631,6.9035 l 5.1277,0.9843 c -8.5356,5.5885 -4.7972,-3.3944 -15.3283,5.7261 -2.8018,2.4274 -2.6834,2.0489 -3.3446,6.5327 l 16.8687,-5.8961 c -2.1654,1.0454 -4.0785,2.6777 -6.7278,3.9907 -5.9552,2.949 -4.3385,0.2255 -6.7638,5.9364 -4.6903,-4.8145 -7.4559,0.7549 -10.2043,5.4068 3.8054,-0.7931 3.9793,-2.3124 7.1558,-1.0779 -2.1291,0.9977 -6.6627,2.0796 -8.4957,4.3558 -2.9834,3.7059 -0.191,5.9211 -5.275,8.0523 l 2.7159,-6.7105 c -8.6981,-0.3747 -2.3279,2.8077 -8.3044,5.8198 -5.6306,2.8381 -4.3845,-0.7684 -9.8067,5.0151 -3.49,3.7232 -2.5305,-0.4778 -2.8326,4.8164 -0.2981,5.2273 1.2291,3.7307 4.1857,6.55 l 2.1025,1.8749 c 1.8748,1.5729 0.6994,0.4185 2.3087,2.7274 6.095,0.3708 7.1463,-0.3211 9.1951,-3.0754 3.0486,-4.0919 -2.2074,-0.046 2.1808,-3.0446 5.9345,-0.8141 6.9226,1.2252 11.1103,2.3662 3.7861,-5.9479 -0.06,-1.9341 6.0223,-4.5278 2.5478,-1.0875 4.2679,-2.4693 7.9223,-3.2301 -0.2084,0.2103 -0.4778,0.2754 -0.5696,0.6805 -0.5313,2.2935 -4.2889,3.8226 -5.9154,5.1795 -0.172,0.1434 -0.4032,0.3556 -0.5677,0.5066 -5.9248,5.4413 -1.6074,3.5416 -11.005,4.0824 -0.1318,0.012 -0.4645,0.012 -0.6842,0.074 l 0.015,1.2231 c 0.3402,2.8726 1.8883,0.8658 -0.3938,4.6405 -4.3156,7.131 -3.0981,0.1103 -5.4738,5.0687 1.1907,4.9159 3.4097,4.3634 8.3005,4.5507 l 1.791,3.9258 c 0.3402,-0.1226 1.7641,-2.0814 1.9687,-2.1827 2.9909,-1.485 3.7556,0.908 10.2959,-3.8034 4.9979,-3.5989 5.8619,-5.9995 12.859,-8.3714 6.0109,-2.0354 15.7393,-2.3355 17.922,-8.6294 1.7373,-5.0035 -0.9977,-1.3531 -0.1644,-6.4486 0.1682,-1.032 0.6537,-2.7273 0.8351,-4.3826 l 8.9678,-1.7773 c -0.7875,-0.3824 -2.2094,-1.4181 -3.2588,-2.5555 0.5963,-0.5981 1.0991,-0.9919 1.5406,-1.4315 l 1.9303,-2.0087 c -5.9192,0.7549 -3.3198,0.7703 -6.8652,4.3787 l -2.9721,-5.2101 -2.2247,4.7095 c -1.1467,2.0736 -0.3383,1.4658 -3.1211,2.3201 0.069,-0.2006 0.2791,-0.6919 0.3116,-0.5543 l 1.204,-3.8702 c -7.71,-0.1988 -2.8822,2.6948 -6.7735,6.2326 -6.1064,5.5504 -5.2292,-2.8898 -5.8063,9.1836 -7.6529,-0.012 -1.9573,2.6585 -7.2438,4.8833 -2.8019,-5.3688 2.1425,0.7473 -0.4702,-3.425 -1.5998,-2.5554 1.5959,0.432 -1.5081,-1.3073 -0.2062,-0.1152 -0.5733,-0.2256 -0.7815,-0.321 -0.2599,-0.1189 -1.4546,-0.4033 -1.7699,-0.56 0.1854,-0.2333 0.4625,-0.8754 0.5504,-0.6995 l 2.4178,-3.494 c 0.6575,-1.2117 1.6455,-2.9109 0.8409,-5.0838 -7.0105,-2.0221 -14.3211,7.0774 -20.8233,7.3469 3.5588,-1.9056 17.0925,-11.0299 21.974,-11.4465 7.5284,-0.6442 -0.4855,4.7168 17.5606,-3.9067 8.9181,-4.2603 7.9317,-3.6678 4.0041,-11.6359 3.6067,-2.7101 8.1573,-3.5741 12.7062,-5.856 3.0083,-1.5081 3.5701,-2.8786 7.7998,-3.7023 -3.2299,15.3188 -9.8009,1.833 -16.6969,14.8564 4.3845,2.7923 -0.9116,0.5542 5.0821,0.9614 2.5249,0.1721 2.3204,0.3439 4.9426,0.9422 -0.323,-3.467 -0.2542,-2.6203 -1.8425,-4.8317 l 4.1304,-1.3016 c 1.483,3.511 -2.909,2.1731 2.0469,3.9067 0.5084,-0.8791 4.7801,-10.3839 5.189,-11.6053 0.2028,0.2179 0.4167,0.3173 0.5065,0.7359 0.088,0.4147 0.3785,0.5619 0.5065,0.7262 2.5287,3.2932 3.425,3.6869 7.9776,3.0351 0.3212,-0.046 1.1889,-0.2026 1.4679,-0.2446 0.1817,-0.027 0.5218,-0.078 0.6785,-0.1028 0.1548,-0.022 0.5429,-0.069 0.6652,-0.087 0.1226,-0.016 0.4452,-0.019 0.6613,-0.069 0.3879,-2.0011 -0.1114,-6.0091 -1.5443,-8.3141 -3.8685,-6.2211 -1.5061,2.5497 -3.6144,-3.3676 1.168,-1.0703 6.1277,-3.941 8.8225,-4.2945 l 2.1196,4.736 8.2988,-4.6424 c -1.3837,6.2556 -3.6162,3.2205 -8.0198,7.9165 1.0761,3.251 -1.5366,0.839 3.6946,2.7331 -4.3883,2.9375 -0.9805,2.4158 -3.9754,7.2513 l -2.1196,-4.3883 -3.5683,5.5866 c -1.9726,3.6946 -3.5263,4.9559 -9.1512,5.7702 -1.6686,-2.9338 -1.2405,-4.3194 -4.417,-5.4031 -2.5535,7.7997 2.909,11.0165 -10.3514,9.1434 l 2.3431,11.8557 c 7.8707,-1.4585 7.1349,-6.5329 15.4336,-6.206 0.7512,-11.0986 0.5887,-7.0029 9.7112,-7.6316 3.7594,-4.4074 1.9895,-6.8022 11.3854,-6.4219 -1.0322,4.5489 -1.1793,3.6276 -4.3941,5.3228 l 2.4732,1.5234 c 2.1311,1.5538 1.0951,-0.2122 2.4388,2.1443 l -7.6985,2.2554 1.2174,2.6642 c 0.081,6.594 -2.4427,-4.1148 -0.1226,1.4909 6.957,-1.9838 6.8939,-3.0581 13.5433,-0.3058 l 1.9991,-5.8982 c 8.1344,0.5847 9.1015,-2.3661 12.3219,1.4621 -6.978,2.1043 -17.681,6.6015 -25.8097,9.7399 -7.8591,3.0351 -18.3309,8.0617 -26.6507,9.8889 0.6078,5.8236 2.2571,0.9804 -0.014,4.7456 -8.0005,0.6517 0.012,-0.3422 -3.79,-1.9781 -2.456,-1.0589 -2.7407,-0.1701 -4.3709,1.2481 -5.3306,4.6347 -1.3495,2.5686 -9.4896,4.2678 -6.5651,1.3723 -12.1593,5.8524 -19.1069,8.4019 -14.0153,5.1433 3.0065,2.781 -18.1169,7.3545 -15.8369,3.429 -9.3576,5.2905 -17.4709,9.5068 -0.1892,0.099 -0.5715,0.2139 -0.8275,0.3785 4.65,-0.541 5.5024,-2.5364 7.6201,-1.2443 -4.5755,5.9976 -19.5101,6.3434 -22.6389,6.8883 -5.1223,0.8944 -19.9748,3.6943 -21.8115,7.9488 3.9812,1.8386 7.8592,-1.1525 13.5395,-1.0301 -2.8421,4.0709 -3.7309,1.5843 -9.2697,6.3072 l -3.4841,3.4269 c 17.5932,-2.6987 16.4195,-7.0392 19.9059,-10.3037 2.5878,-2.4235 3.9065,-1.9648 6.5823,-3.7003 l 1.5213,0.9251 c 4.4475,2.9951 5.4644,3.8875 16.221,0.8716 11.7563,-3.2969 6.9647,-2.4943 10.7108,-5.4491 1.5997,-1.2633 1.9208,-1.3665 4.4761,-1.3837 l -3.5607,3.4708 7.733,0.2829 -1.5845,4.654 c -0.4968,3.1077 2.0662,3.1211 -2.7101,4.7303 -6.4659,2.1771 -9.5105,-0.4816 -14.8735,-1.4486 -6.4525,-1.1602 -7.9166,1.1122 -12.5303,2.7483 -5.1699,1.8329 -24.9248,3.5262 -38.5427,11.2249 -2.6299,1.4869 -7.4348,4.2736 -10.2213,5.7051 -7.5229,3.8665 -11.1542,3.4213 -12.0411,7.5762 l 0.5906,6.2576 c 2.4464,4.4151 0.1605,0.5064 2.1043,2.4387 2.3546,-2.1921 2.7484,-0.7626 1.552,-3.5453 -2.091,-4.8546 0.6842,3.6199 -2.6338,-2.0623 4.0538,-1.4564 5.1395,-3.0771 8.5014,-5.2942 0.9594,1.5958 1.4659,-0.5562 0.4834,3.7327 -1.9494,-2.7905 -0.47,-1.7316 -4.1665,-1.1353 l -0.1739,7.8973 c 5.6574,-1.3684 8.4937,-4.5793 11.9052,-7.645 6.2862,-5.6516 4.9426,-3.7576 12.7139,-4.1188 0.1089,-2.9968 -0.4511,-3.3466 -1.8139,-5.1929 l 8.381,0.5084 c -0.6249,4.6959 -2.974,3.9984 -2.6796,9.9232 8.9696,-0.6383 22.9944,-4.5793 31.4461,-7.0506 5.7892,-1.6915 10.0934,-3.1192 15.2117,-5.0324 6.8921,-2.5763 10.6382,-2.0889 8.4212,-9.9099 l -4.4763,4.5584 c -3.574,-0.3058 -3.4154,-0.082 -5.8064,-2.3375 1.4525,-2.4081 9.8183,-4.8011 13.182,-6.3837 8.3465,-3.9295 8.8282,-2.4617 12.7635,3.2225 3.836,-0.5868 4.6903,-1.4488 8.1554,-2.4483 5.8866,-1.6992 6.2116,0.1548 9.3918,-0.4703 14.1034,-2.7636 9.738,-7.6048 18.5299,-8.4114 11.867,-1.0875 6.1829,-4.3845 13.6636,-5.6746 3.1708,-0.5467 3.7212,-0.9729 6.2862,-2.2896 3.9392,-2.0242 7.196,-3.6507 11.091,-5.7951 9.9215,-5.4585 8.9774,-2.607 9.7226,-7.0736 13.2051,-2.5476 11.9895,0.7588 27.058,-9.1033 l 66.7433,-44.4389 c 1.2155,1.4621 1.9629,2.7254 4.2889,2.8364 2.4598,0.1188 2.2744,-0.8067 4.889,-1.8541 -1.7164,5.4931 -3.06,2.6013 -4.3997,6.7697 2.5822,-0.4988 28.4607,-24.9381 30.8211,-27.4439 7.5534,-8.014 15.8979,-11.1273 31.9583,-28.455 6.4296,-6.9339 11.1944,-4.5602 18.2966,-11.3758 4.7477,-4.5564 10.0513,-9.7685 14.3402,-15.3264 6.5424,-8.4765 4.1475,-10.8714 15.1736,-14.6786 5.1222,-1.7698 10.3055,-12.2933 13.0559,-17.3371 0.1053,-0.2504 0.1319,-0.9595 0.1548,-0.8028 0.022,0.153 0.1102,-0.6268 0.1433,-0.774 0.9805,-4.78 0.032,-1.592 6.4601,-7.7482 3.8111,-3.6487 5.795,-4.9293 8.6657,-10.4088 5.5522,-10.6075 9.1799,-15.8768 21.326,-14.6327 8.0197,-21.9357 16.6338,-27.3847 23.6384,-46.2565 4.3063,-11.6014 4.8758,-4.9847 9.1303,-14.1624 4.9807,0.9728 1.594,0.145 5.3209,3.4993 l 9.9731,-31.9315 c 1.1754,-2.8573 3.8321,-6.2824 5.4796,-9.3002 2.7274,-4.9923 0.7969,-17.2931 1.204,-24.7318 0.2905,-5.3498 2.068,-5.4701 3.8551,-9.3672 2.0183,-4.4036 1.6514,-7.9585 2.9529,-11.9282 1.1812,-3.597 3.037,-4.7839 4.8336,-8.9065 1.2193,-2.7943 2.1883,-7.0621 3.9984,-9.7952 5.8734,-8.8645 12.0792,-9.0116 9.7053,-17.7768 -2.7254,-10.0571 -7.1538,0.5103 -1.4123,-19.5465 7.5093,-26.2302 6.5441,-9.4609 11.844,-17.2377 0.8316,-8.8359 1.8807,-17.0906 3.2377,-25.8939 l 2.7141,-42.7933 c -0.2007,-7.4272 1.8997,-7.1424 2.7522,-12.9584 1.6513,-11.2554 -2.4618,-6.118 2.6108,-12.4691 3.1249,-3.9104 3.4326,-7.1673 1.4411,-12.8265 -1.2118,-3.4403 -4.266,-6.8213 -5.2101,-9.8259 l -2.6644,-27.073 c 1.0647,-5.6746 4.2202,-5.1374 5.0802,-10.8598 0.6823,-4.5432 0.012,-9.5335 1.7775,-13.2911 3.423,-7.2742 3.0026,-2.8132 2.3145,-12.1079 -0.3765,-5.0744 0.8888,-10.0761 0.6364,-13.6043 -0.6057,-8.4574 -2.7426,1.7603 -1.0091,-12.7138 -1.785,-2.154 -5.0208,-3.6276 -5.8503,-6.8786 -1.1333,-4.4514 0.9709,-5.7205 -1.0034,-11.81364 l -5.7377,-32.4228 c -0.4013,-7.127 0.3288,-5.0877 -2.5439,-10.2176 -3.6314,-6.483 -3.1937,-14.7358 -5.7778,-19.73 -2.5209,-6.42 -2.5227,-3.7193 -3.0255,-12.0085 -0.2924,-4.81834 -1.5366,-8.78411 -2.993,-12.70034 -5.0133,-13.47645 -3.2894,-14.5409 -9.7208,-22.47851 1.4985,-4.60047 3.0103,-3.23384 1.4755,-7.3258 -0.7684,-2.04519 -2.8879,-4.66165 -3.8052,-7.90503 -1.9859,-7.02586 1.1238,-4.06534 -4.1686,-19.10695 -1.2155,-3.45367 -2.4311,-5.16236 -3.5148,-8.12486 -1.164,-3.18232 -1.1944,-6.4371 -2.542,-9.22943 -1.3532,-2.80385 -3.2185,-3.98509 -4.9177,-6.72962 -1.6895,-2.73128 -2.5745,-4.88333 -3.7135,-7.96807 l -4.8395,0.0483 c 1.5482,-5.04198 4.4993,-5.99001 2.4656,-11.27461 -1.6705,-4.33668 -4.6157,-5.08582 -6.5976,-8.31979 -7.0604,-11.52676 -0.239,-12.88373 -14.6404,-29.90933 -7.3852,-8.73257 1.705,-3.6086 -17.5952,-27.98478 -19.1603,-24.19871 -6.5995,-16.47128 -15.4525,-29.06087 -2.2821,-3.24338 -3.4155,-6.19065 -5.7741,-9.0786 -3.0178,-3.70024 -4.65,-2.95097 -8.0309,-6.83661 -7.2629,-8.33887 -3.3869,-3.27397 -7.7732,-7.04295 -3.6507,-3.13638 -2.4484,-5.61923 -5.5389,-9.27922 -2.4369,-2.88411 -5.5808,-3.27025 -9.7283,-5.7931 -2.0585,-8.07321 4.6998,-11.34718 -4.6444,-15.91125 -6.9264,-3.38295 -7.2037,-5.04953 -11.3606,-10.86752 -5.4242,-7.58775 -11.8995,-20.52312 -22.5358,-21.71587 L 1555,626.18176 c -1.6266,-3.55497 -0.1319,-2.61263 -2.8707,-4.54115 -2.0777,-1.46211 -4.8031,-1.17542 -7.9472,-1.37419 -2.9643,-9.80481 -6.5461,-10.46429 -12.5302,-16.27646 -6.2232,-6.04525 -25.0721,-19.71466 -32.9484,-24.26151 -5.1336,-2.96447 -4.4571,-4.40553 -8.1726,-6.78695 -3.6257,-2.32408 -5.9823,-2.94145 -9.5085,-5.23493 -6.6436,-4.31762 -11.2613,-6.96468 -17.5608,-11.05677 -3.4956,-2.27058 -5.8407,-3.95623 -9.6576,-5.29797 -3.7805,-1.33034 -8.8377,-1.01119 -11.8117,-2.82677 -6.4257,-3.9296 3.4079,-5.10501 -35.8783,-22.42871 -6.3015,-2.77909 -54.9299,-23.87758 -58.6319,-28.38245 -3.5111,-4.27352 -0.9252,-4.7055 -8.3065,-6.47153 -4.4112,-1.05491 -7.8783,-1.527 -12.1671,-2.7101 -7.0028,-1.92851 -15.3456,-4.14943 -22.9238,-5.58479 -12.1386,-2.29931 -13.8432,0.49315 -23.8278,-5.96314 -6.4658,-4.18188 -14.9576,-4.01172 -23.4244,-5.0935 -17.0601,-2.18079 -22.2816,0.1891 -27.7325,-0.60214 -5.7167,-2.85723 -20.6321,-3.5224 -28.0632,-2.22475 -13.2298,2.30897 -24.6421,-4.36715 -42.4779,-1.3665 -7.8956,1.32637 -6.5461,0.18353 -12.5494,-1.54052 -6.2862,-1.80418 -87.3068,-3.1287 -93.6465,-2.63752 -16.2994,1.26334 -27.5338,-3.79957 -43.0341,0.36125 -5.9861,1.60738 -4.6655,4.53162 -8.9658,7.95469 -9.50093,-0.41091 0.6345,-2.96435 -9.51628,-2.85351 -6.09302,0.0669 -4.2448,2.37386 -9.57915,2.89178 -35.87836,3.48042 -18.58132,4.66338 -28.63468,6.55562 -7.19969,1.35511 -13.61586,0.19877 -25.21727,8.96006 -1.80993,0.3994 -16.93188,4.36345 -17.80152,4.81647 -3.22242,1.67797 -2.54011,3.3427 -7.85152,3.84725 -4.66729,0.44348 -14.7492,-2.78466 -28.37086,3.44028 -6.41804,2.93377 -7.12901,8.1879 -14.08607,8.98868 -7.4673,0.85825 -11.48096,3.05811 -18.33094,4.20108 l -19.67077,3.7556 c -1.98391,0.9671 -3.64671,3.24722 -5.92877,4.63478 -6.79837,4.13023 -12.08876,1.0455 -19.57902,15.15257 -7.65655,0.18354 -11.49437,-1.79093 -18.42845,1.90362 -7.17491,3.82261 -6.25176,6.17727 -7.49026,14.8468 -10.49287,3.38865 -21.79612,6.35301 -26.83039,13.65974 -5.01326,0.2638 -12.20345,4.72086 -16.00879,9.12441 -11.2631,13.02912 -6.9723,8.30828 -15.80428,10.48721 -8.90077,2.19404 -8.7173,10.21375 -13.01382,12.51108 -7.30487,3.90855 -6.92261,-2.06029 -14.21984,8.24709 -2.83442,4.00416 -2.11005,0.4129 -5.45475,5.10118 -9.24099,12.95085 -9.38052,3.66965 -26.81128,18.74582 l -24.17181,20.27467 c -2.70827,2.47505 -2.00301,1.43536 -3.5779,4.52022 -2.19796,0.58678 -0.56382,-0.33636 -3.037,1.6303 l -7.64126,8.27967 c -7.49981,8.23173 -4.48765,2.27243 -10.44889,11.78287 -4.79156,7.6431 -13.27378,10.26737 -22.89318,21.63945 -6.80604,8.04832 -13.40182,14.65942 -19.59815,23.86792 -2.57448,3.82632 -1.70486,2.67951 -5.05149,5.40126 -2.76561,2.24952 -12.75771,14.00007 -11.17327,20.77736 -10.10297,0.24658 -6.15046,5.68029 -14.90789,16.86696 -8.54146,10.91137 -19.20252,28.38988 -27.19353,38.52153 -5.4452,6.90362 -8.9887,10.63235 -12.9412,20.33016 -6.63019,6.33591 -17.41549,23.84885 -20.1161,33.45489 -2.03551,7.23603 -3.68111,14.09184 -5.46815,20.94939 -0.92695,3.56067 -2.2725,6.60156 -3.75946,10.20236 -2.49993,6.05108 -1.4067,5.12793 -2.28588,11.56899 -0.86198,6.31474 -2.41584,2.89352 -3.37146,9.64988 -0.8295,5.86952 -0.4224,5.48535 -2.68916,10.6783 -5.25216,12.02762 -0.11084,16.64712 -1.97435,21.40802 -0.58484,1.4946 -3.68492,4.8146 -5.11073,7.584 -2.68534,5.2139 -1.29392,5.686 -2.4273,11.1101 -0.97666,4.6655 -9.61369,15.6533 -2.83252,18.6464 -4.54116,3.0849 -4.11112,3.0083 -4.85079,9.5621 -0.87345,7.7407 -2.1903,30.56504 3.75374,36.06954 l 2.71591,1.8424 c -10.53301,14.6212 -7.99293,16.2306 -7.16917,32.5565 0.32873,6.4888 -1.71058,7.5323 -1.74499,13.7402 -0.0535,9.1339 2.22471,17.8818 1.90553,27.5948 -0.32681,9.9788 -2.14062,18.1896 -0.91167,27.9504 1.59591,12.6794 10.72031,30.0987 14.97096,43.5311 5.36112,16.9358 9.00207,27.5681 11.64537,46.3807 1.03399,7.3546 5.38977,18.1208 4.62717,23.889 -1.60356,12.125 -9.4302,8.9601 -0.646,21.1232 7.75974,10.7454 3.7136,34.3571 12.25887,52.4721 2.93188,6.2154 -1.50417,0.9767 3.08287,9.5315 l 7.00671,15.2557 c 3.16889,5.5237 1.34745,7.0736 3.43838,11.3244 2.67769,5.4413 11.8384,14.8486 16.92811,26.5532 2.75412,6.33 2.95673,3.509 7.88781,7.1042 -0.96329,0.6841 0.69378,-0.1491 -2.12916,1.2079 -1.14868,0.5504 -0.63837,0.1395 -2.13872,0.9135 0.19496,10.8446 2.9338,8.2491 4.5297,12.0755 1.28057,3.0734 -2.04505,1.4373 1.36083,5.2846 1.95715,2.2094 1.97817,0.084 4.65777,3.8379 -1.69722,1.4353 -3.41162,0.9785 -5.69558,0.6899 0.40326,6.8481 16.93384,28.9672 22.48798,32.2355 6.10841,3.597 1.46786,2.8555 6.52889,7.345 3.43838,3.0484 4.42459,3.2626 7.6986,7.1195 3.42881,4.0384 10.02843,12.0065 12.17287,16.4826 l 4.56602,-4.6271 c 1.16205,6.9991 1.39522,7.0029 5.49872,10.4375 4.78581,4.0041 3.93911,6.8156 6.78118,9.0956 4.65583,3.7308 6.88057,-0.3629 10.21763,5.7473 1.74882,3.1976 2.50377,8.3273 4.51251,11.4045 2.94526,4.5144 12.37546,10.2407 16.54393,15.1908 4.65204,5.5256 10.25778,14.1759 14.6193,18.2334 3.35046,3.1193 2.61844,0.9176 5.191,3.1824 l 1.44112,1.745 c 1.06457,1.1676 0.97473,1.0264 2.21132,2.0814 2.96246,2.5305 7.65082,10.0168 15.10094,16.7426 l 16.09478,15.619 c 3.12301,3.0006 4.03661,6.4199 6.93026,9.0479 l 21.4903,18.7744 c 3.57981,3.2892 1.19837,1.1276 5.34581,3.1783 5.5102,2.7256 3.20904,5.1548 6.93984,8.9218 1.97242,1.9917 6.54227,4.2335 9.12057,6.7813 5.63059,5.5579 8.71155,12.448 15.25192,16.5649 7.11756,4.4801 16.28974,14.801 26.41754,22.3352 11.77726,8.7612 15.12387,21.4291 37.06333,26.5112 l 38.38783,9.4225 c 7.90308,2.219 8.59115,0.386 15.63418,1.1029 3.33134,2.3661 2.70444,3.5434 5.84847,5.8828 1.98773,1.4793 5.48532,2.6357 7.75592,3.9907 6.8328,4.0749 13.16482,1.9743 18.42658,4.845 2.70444,1.4755 3.5836,3.9316 5.86566,5.795 3.41156,2.7847 4.26597,1.7852 8.15725,3.5378 5.96896,2.6892 1.6953,5.9306 14.71487,9.6271 16.28214,4.6214 25.03381,3.4479 42.33843,2.7369 14.39761,-0.5906 21.82287,1.7833 25.65494,-4.9158 1.32649,-2.3222 -3.20514,0.4205 1.10279,-1.3723 5.00759,-2.0833 2.73124,4.4838 2.41207,6.9665 6.78107,1.2462 26.70229,1.0265 33.22539,-0.7013 15.0341,-3.9831 31.4767,-2.7122 45.8055,-9.2927 11.4008,-5.2349 10.2101,0.7608 27.0713,-10.1105 6.3701,-4.1073 8.3102,-3.0351 16.3164,-3.1556 1.4278,-5.5255 7.5591,-10.8483 14.52,-10.6037 1.678,2.7484 0.6612,4.6386 2.1195,7.1387 6.9838,-9.0308 2.6452,-6.3607 3.3696,-15.3935 6.7869,-3.358 13.2145,-7.5036 19.5313,-11.1579 4.9004,-2.8383 6.3645,-0.6288 9.4149,-5.4223 1.9476,-3.06 4.029,-7.3794 5.6593,-10.2425 5.4586,-9.5812 10.7126,-9.52 14.9957,-15.7737 2.588,-3.7785 2.4618,-6.2345 5.8486,-10.0437 7.4731,-8.4077 -0.031,-15.0322 10.3686,-36.293 11.03,-22.5454 -8.228,-17.7117 -11.5651,-29.3151 -2.1483,-7.4731 6.936,-15.2538 -2.6605,-22.8225 -5.3935,-4.2526 -5.3611,-0.2522 -12.5666,-0.9059 -5.449,-2.8249 -8.1725,-9.8947 -11.33,-14.0268 -5.0114,-0.7625 -7.5839,0.08 -11.7581,-0.3689 l -6.1772,-4.3329 c -0.099,-0.1547 -0.2446,-0.5025 -0.4128,-0.7262 -20.2481,1.9113 -14.0575,-7.0201 -19.8333,-9.5927 -8.5893,-0.6001 -14.9327,-0.839 -22.5702,-2.9108 -9.9251,-2.6931 -10.9955,-6.0549 -19.0706,0.078 -8.4555,-4.2162 -14.2676,-0.9385 -23.136,-2.3643 -10.4852,-1.6895 -12.4824,-0.6308 -22.1095,2.605 -2.1904,15.4834 -9.6806,11.76 -11.1963,5.065 -0.081,-0.3555 -0.279,-1.4814 -0.3478,-1.7871 l -0.4434,-1.6762 c -10.7796,0.1077 -21.79034,2.4044 -24.26736,-8.3331 2.40055,-3.1613 3.5244,-3.3811 7.5534,-5.0534 l 7.05256,-2.3222 c 2.2151,-0.7951 1.42,-0.3173 2.4597,-1.1048 -4.1148,-3.1153 -3.809,-1.4373 -8.73828,-0.9096 -4.44365,0.4757 -6.9685,-0.4205 -11.52677,0.074 -2.36995,3.2969 -4.01749,7.8858 -6.45061,11.3529 -10.42018,1.3455 -10.75658,-4.8202 -14.193,-11.0739 -2.27822,-4.1493 -10.46997,-7.6432 -16.40054,-8.9524 -1.35514,8.3102 0.73578,9.5487 -7.28197,11.7945 -14.67288,4.1112 -17.36771,-2.7542 -26.17678,-11.3682 -4.954,-4.8451 -8.96766,-2.6604 -14.68423,-5.4012 l -12.27232,-6.8615 c -3.84548,-2.1388 -8.05977,-5.5752 -11.82881,-8.3007 -15.05893,-10.8961 -29.34944,-23.6442 -41.87207,-36.5587 -5.30568,-5.4719 -13.11131,-17.7615 -18.14749,-21.0908 -9.43595,-6.2404 -6.65504,-9.0804 -12.59335,-16.0127 -2.82105,-3.293 -3.9506,-2.6604 -6.11416,-4.5125 -3.10582,-2.6566 -1.19836,-2.3968 -3.1402,-6.3033 -1.84438,-3.7079 -2.62227,-2.8764 -5.42992,-5.2503 -3.4097,-2.8821 -5.20821,-7.5076 -9.1263,-11.2363 -9.02885,0.2789 -8.51089,0.3727 -15.13535,-6.8769 -4.071,-4.455 -7.23796,-8.5451 -10.85027,-13.5298 l -10.93054,-13.4246 c -3.88178,-5.8218 -2.05652,-12.9242 -9.7685,-15.9898 -0.46061,6.5156 0.33447,9.9807 0.17584,15.3475 -7.13859,5.0706 -9.36713,-0.7244 -16.52101,-8.2452 -5.29421,-5.5656 -9.07851,-10.1354 -14.88686,-15.8233 -18.55269,-18.1629 -17.47282,-20.0857 -18.81071,-42.7552 -2.23235,2.2248 -0.70716,1.1487 -1.77557,3.0025 -2.6127,4.5355 1.23851,1.7776 -3.24723,3.4844 -3.41163,-2.2898 -1.16398,-0.3479 -2.79046,-4.9693 -1.86158,-5.2866 -6.06827,-9.1301 -6.32248,-15.0894 -27.18588,-49.2898 -54.87442,-137.6057 -41.57964,-232.7773 1.10854,-12.666 0.56191,-7.4636 8.22611,-10.3515 3.72123,-11.4561 5.14322,-53.15624 6.45816,-59.19574 3.01407,-13.8262 17.29316,-44.17134 17.46518,-48.12386 7.51891,-7.1902 3.23386,-12.96225 22.65043,-28.48932 6.21546,-4.97127 8.04071,-5.73378 12.78065,-12.6488 3.84548,-5.60956 6.88248,-9.47613 10.5311,-14.88878 3.83018,-5.68597 8.07702,-8.48797 12.41369,-13.03482 12.32576,-12.92212 6.54418,-10.37437 19.21398,-18.97517 2.99879,-2.03552 6.24984,-3.17068 8.17831,-4.46461 l 11.96072,-14.01729 23.74751,-20.29004 64.53017,-44.63006 c 4.76096,-2.82293 10.28262,-4.95777 14.30968,-7.84187 l 0.50077,-1.84826 c 0.0745,-0.24273 0.38222,-1.40861 0.4988,-1.70869 1.31118,-3.38667 2.20564,-3.60079 9.0422,-6.75055 4.96931,-2.28779 9.20088,-4.18944 14.56389,-6.52132 8.44396,-3.6715 24.92867,-6.61283 30.5,-11.14642 z m 239.46863,-42.73968 c 5.1947,-0.90977 3.4212,-2.02413 8.7364,-3.42309 2.7942,-0.73589 6.7907,-1.08178 10.3858,-1.51561 l 0.7129,-3.41169 c -13.9408,-13.45341 -17.146,-2.19986 -25.6035,-6.25752 -10.9037,-5.23109 -19.619,-1.03584 -29.2137,-3.92948 -3.8225,-1.15251 -10.5062,-7.89735 -25.955,-2.58985 -9.1435,3.14208 -20.2939,-0.4415 -31.6773,-0.32299 l 2.9567,10.37637 c 3.8473,-0.43197 18.1093,-3.17663 21.282,-1.52144 -2.4923,4.39588 -8.2816,2.70825 -15.9286,2.89364 -6.9187,0.17004 -4.5564,0.30392 -5.1814,1.05305 -5.1393,9.41496 16.1999,6.47921 22.1383,5.51792 21.7674,-3.5224 19.2426,-6.77544 23.5449,1.95143 5.6936,0.52176 7.8152,0.0136 12.859,-0.63075 6.2842,-0.80275 14.4664,3.82632 25.481,2.62416 6.571,-0.71669 1.506,-3.01402 5.4625,-0.81614 z M 749.579,1417.5839 c -2.51524,-1.378 -1.24615,-3.8035 -4.10349,-7.2685 -9.43786,-11.4391 -3.56834,0.7261 -8.61027,-17.8093 -1.34362,-4.9388 -3.22814,-5.6267 -3.68302,-10.2635 l 6.47728,-4.1972 c -1.02634,-5.5446 -1.1563,0.5199 -4.1914,-11.5918 -1.12955,-4.5087 -4.03469,-6.2671 -9.32507,-6.095 -5.53886,7.7883 -3.66201,12.5914 -10.03991,14.5791 -0.87727,-1.8998 -2.089,-4.7915 -2.89557,-7.8019 -1.67808,-6.2612 -0.0746,-1.4485 2.09666,-6.848 -16.9128,-2.2036 -12.23021,5.7204 -6.37025,13.4382 4.39592,5.7911 8.01969,11.9243 12.14802,16.4675 4.47811,4.9291 23.22,27.2757 28.49892,27.3904 z m 616.0306,199.9569 c 0.1338,-5.2101 0.1988,-2.3413 1.5787,-4.0081 l 2.8745,-2.3527 c -4.0557,-2.345 -12.9355,8.4574 -15.6457,10.6496 -4.0518,3.274 -13.9294,9.4857 -20.9723,6.3091 2.0355,-2.0469 9.7112,-3.9467 12.7079,-5.0514 -1.6206,-1.1697 0.1202,-0.5601 -2.5629,-1.0378 -1.5787,-0.2809 -2.1808,-0.2122 -3.8073,-0.062 -26.7558,2.4999 -15.2328,12.429 -36.2701,22.0312 5.7166,3.5377 18.9941,-5.0878 22.874,-7.8076 7.324,-5.1297 17.9411,-4.4149 27.4955,-1.9915 -4.3308,4.0901 -4.4264,1.3168 -8.4248,3.4575 7.5533,6.4027 13.7172,2.6949 18.5317,-3.1785 -2.4579,-1.5997 -4.2603,0.948 -9.2888,-3.4536 1.8024,-3.6907 40.2055,-22.0483 44.9874,-25.8594 -16.3853,-1.1029 -11.0299,3.941 -18.2009,5.6038 -9.6883,2.2439 -9.6347,10.21 -15.8789,6.7525 z m -39.6398,-76.1316 -1.0549,5.5809 c 3.5855,0.8199 2.6031,0.1529 3.7097,0.195 3.6294,0.1376 1.6322,-0.6233 3.2702,0.4014 -2.4885,4.7876 -1.3551,-3.232 -6.8233,3.4766 -5.0668,6.2134 -2.4694,1.7009 -7.45,5.382 -1.3188,0.9748 -2.0776,1.9476 -2.3719,4.0041 l 0.277,3.6639 c 0.9137,3.9831 1.5177,5.0592 7.0488,7.7579 2.4465,-2.8402 3.016,-3.3849 0.7568,-6.2651 0.2638,-0.1434 0.7112,-0.5677 0.8353,-0.3365 0,0 2.4903,-0.2924 3.6448,-2.8419 l -5.1356,-0.711 c 10.1507,-2.9185 10.77,-0.7437 21.2819,-6.5079 6.2653,-3.4365 11.7791,-7.7273 17.6602,-11.0243 -4.7725,-2.412 -2.9777,1.8349 -5.409,-2.9548 1.2138,-2.4043 0.8144,-1.1467 2.2191,-2.4694 0.776,-0.7282 0.2772,0.5621 2.1674,-1.8233 l -11.4523,5.2216 c -1.6457,-3.1535 -4.7018,-6.9818 1.7316,-7.1137 5.9325,-0.1202 7.5438,2.1539 9.0384,-4.9884 l -19.602,6.4658 c -4.3482,1.8997 -0.4319,-0.9766 -3.9545,2.5286 -7.754,7.7158 -5.189,5.1184 -10.3858,2.3585 z"
       fill="url(#a)"
       id="path3"
       style="fill:url(#a);stroke-width:0.191128" />
    <path
       d="M 73.748725,992.22526 H 208.35555 c 16.5898,0 128.06645,-2.3279 133.53459,1.4009 2.97775,3.2014 1.86349,10.07824 1.85776,15.94004 -0.007,9.8813 1.66852,45.815 -1.8463,48.8081 -5.58663,2.8172 -239.99989,1.1735 -268.152875,1.1735 v 202.862 l 67.645525,-0.052 0.004,-135.0099 124.37388,-0.1721 78.09827,135.182 77.84596,0.07 c -4.35387,-12.123 -74.50316,-126.6214 -76.71833,-135.1801 24.64389,-0.7473 40.12135,-11.7639 50.9831,-24.3897 14.89069,-17.3123 15.66093,-33.2962 15.66093,-60.4342 0,-43.84464 8.22037,-89.78954 -39.41417,-111.95274 -18.7916,-8.74395 -46.39796,-6.181 -69.53961,-6.181 H 73.750633 v 67.9361 z m 824.175255,-0.4052 233.16902,0.4147 c -2.8267,4.5087 -27.4839,24.57324 -33.5618,29.97254 -5.256,4.6674 -10.856,9.6099 -16.5096,14.1931 l -84.31947,72.5824 c -27.3483,22.1937 -56.66524,50.1057 -83.72112,72.0739 -3.06758,2.4904 -5.47581,4.9329 -8.59313,7.3049 -3.43073,2.6126 -6.1065,3.706 -6.46194,9.7818 -1.14677,19.688 0.084,43.7413 0.0746,63.9319 l 337.63126,0.095 0.012,-67.3532 -233.2474,-0.2178 c 2.3757,-4.031 27.2126,-24.3036 32.6521,-29.252 5.4166,-4.9291 10.7375,-9.1855 16.5611,-14.1682 5.5982,-4.7878 11.2517,-10.0859 17.0964,-14.7111 l 25.1446,-21.4845 c 29.1851,-25.6587 66.8123,-56.0002 93.3311,-80.5103 l 33.5695,-28.9557 c 7.6507,-6.23844 14.6442,-10.39724 14.9767,-17.05814 0.9059,-18.3042 0.6937,-45.4003 -0.2293,-63.779 -27.0311,-1.2002 -56.5316,-0.1376 -83.834,-0.1376 -37.7972,0 -246.41221,-1.6475 -253.70177,0.7817 l -0.0386,66.493 z M 2107.6922,1262.1709 V 924.40396 l -67.0933,0.012 -0.5504,232.92434 c -5.709,-3.037 -108.8239,-125.3161 -117.2697,-134.5495 -22.6601,-24.77564 -50.5398,-60.87584 -72.5441,-84.31944 -2.5268,-2.691 -4.8126,-5.3286 -7.4348,-8.4726 -2.9205,-3.5053 -2.9205,-5.623 -9.5374,-5.6746 -19.9975,-0.149 -43.2214,-0.8352 -62.9247,0.1874 l -0.5446,337.18214 67.8863,0.4912 0.018,-233.1806 c 4.5393,2.9511 154.3292,178.3233 176.2552,203.6172 l 25.9073,29.3647 67.8328,0.191 z m -777.8233,-0.014 337.6312,0.2887 -0.042,-67.7983 -122.971,0.05 -146.472,-0.1028 -0.4147,-67.183 145.696,-0.109 124.3299,-0.4512 -0.1016,-67.2709 -130.5129,0.1338 -207.1508,-0.172 0.012,202.6117 z m -658.9711,0.074 12.04673,-0.2101 c 0.22554,-63.8079 0.3708,-52.495 -0.0306,-124.2135 -0.0823,-14.8792 3.57981,-16.1024 17.05042,-34.1008 8.01203,-10.705 127.38223,-174.62294 128.88449,-179.13934 l -83.41159,-0.017 -96.16547,132.84284 c -3.1899,-3.3849 -18.48196,-24.0476 -19.95554,-27.939 -5.02283,-4.4131 -14.84102,-19.9976 -19.40895,-26.0908 -6.6665,-8.89124 -12.64303,-16.93754 -18.78011,-25.73514 -4.80876,-6.8901 -36.0255,-48.6954 -36.95056,-52.711 l -84.20476,-0.3726 c 1.37612,4.4226 90.27686,127.04774 100.44673,140.57564 8.85871,11.7849 16.93383,23.5851 25.36444,35.0356 4.56411,6.1982 8.0407,11.2458 12.41751,17.2586 7.42718,10.2062 7.19209,7.5248 7.15196,23.5736 -0.0975,39.0472 -1.72204,82.2802 0.0248,120.8382 l 55.51853,0.4032 z m 659.0455,-337.72494 -0.2122,67.741 196.0524,0.095 141.8045,-0.4071 -0.5007,-67.8844 -337.144,0.451 z"
       fill="#121210"
       id="path4"
       style="stroke-width:0.191128" />
  </g>
</svg>
